<svg width="1000" height="563" viewBox="0 0 1000 563" fill="none" xmlns="http://www.w3.org/2000/svg">
<path d="M0 0H1000V563H0V0Z" fill="url(#paint0_radial_221_6)"/>
<path d="M343.864 248.76V249.528L338.488 250.008C336.952 250.136 335.864 250.456 335.224 250.968C334.648 251.416 334.008 252.376 333.304 253.848L316.6 288.696V313.464L324.952 314.232V315H300.856V314.232L309.208 313.464V289.176L288.376 250.296L280.504 249.528V248.76H304.408V249.528L296.056 250.296L315.544 286.68H316.024L331.768 253.848C332.024 253.272 332.152 252.664 332.152 252.024C332.152 251.384 331.928 250.904 331.48 250.584C331.032 250.264 330.296 250.072 329.272 250.008L323.416 249.528V248.76H343.864ZM352.629 273.336C356.341 273.336 359.637 274.232 362.517 276.024C365.397 277.816 367.637 280.344 369.237 283.608C370.837 286.808 371.637 290.488 371.637 294.648C371.637 298.808 370.837 302.52 369.237 305.784C367.637 308.984 365.397 311.48 362.517 313.272C359.637 315.064 356.341 315.96 352.629 315.96C348.917 315.96 345.621 315.064 342.741 313.272C339.861 311.48 337.621 308.984 336.021 305.784C334.421 302.52 333.621 298.808 333.621 294.648C333.621 290.488 334.421 286.808 336.021 283.608C337.621 280.344 339.861 277.816 342.741 276.024C345.621 274.232 348.917 273.336 352.629 273.336ZM340.725 294.648C340.725 301.048 341.781 306.04 343.893 309.624C346.005 313.208 348.917 315 352.629 315C356.341 315 359.253 313.208 361.365 309.624C363.477 306.04 364.533 301.048 364.533 294.648C364.533 288.248 363.477 283.256 361.365 279.672C359.253 276.088 356.341 274.296 352.629 274.296C348.917 274.296 346.005 276.088 343.893 279.672C341.781 283.256 340.725 288.248 340.725 294.648ZM415.854 310.2V310.68L405.39 315.48H404.814V308.952L404.526 308.856C400.75 313.592 396.686 315.96 392.334 315.96C390.35 315.96 388.59 315.544 387.054 314.712C385.518 313.88 384.398 312.728 383.694 311.256C383.246 310.424 382.958 309.304 382.83 307.896C382.702 306.424 382.638 303.896 382.638 300.312V275.832L376.878 275.064V274.296H388.878V300.312C388.878 302.872 388.942 304.76 389.07 305.976C389.198 307.128 389.454 308.12 389.838 308.952C390.286 309.976 391.022 310.808 392.046 311.448C393.134 312.024 394.35 312.312 395.694 312.312C397.294 312.312 398.83 311.928 400.302 311.16C401.774 310.328 403.118 309.144 404.334 307.608V275.832L398.574 275.064V274.296H410.574V309.048L415.854 310.2ZM442.288 273.336C443.568 273.336 444.656 273.784 445.552 274.68C446.448 275.512 446.896 276.536 446.896 277.752C446.896 278.776 446.544 279.64 445.84 280.344C445.136 281.048 444.272 281.4 443.248 281.4C442.608 281.4 442.064 281.272 441.616 281.016C441.232 280.696 440.816 280.248 440.368 279.672C439.92 279.16 439.504 278.776 439.12 278.52C438.8 278.264 438.384 278.136 437.872 278.136C436.848 278.136 435.792 278.744 434.704 279.96C433.68 281.176 432.944 282.584 432.496 284.184V313.464L440.176 314.232V315H420.4V314.232L426.256 313.464V279.864L420.592 277.752V277.08L431.44 273.336H432.208V281.784C435.792 276.152 439.152 273.336 442.288 273.336ZM490.977 315.96C488.353 315.96 485.729 315.384 483.105 314.232V335.736L491.745 336.792V337.464H471.009V336.696L476.865 335.928V279.864L471.201 277.752V277.08L482.049 273.336H482.817V280.152H483.201C484.609 278.04 486.401 276.376 488.577 275.16C490.817 273.944 493.185 273.336 495.681 273.336C498.497 273.336 501.057 274.2 503.361 275.928C505.665 277.656 507.457 280.056 508.737 283.128C510.017 286.2 510.657 289.656 510.657 293.496C510.657 297.848 509.825 301.72 508.161 305.112C506.497 308.504 504.161 311.16 501.153 313.08C498.145 315 494.753 315.96 490.977 315.96ZM485.601 312.984C487.329 314.328 489.345 315 491.649 315C493.953 315 496.001 314.136 497.793 312.408C499.649 310.68 501.089 308.28 502.113 305.208C503.137 302.136 503.649 298.68 503.649 294.84C503.649 289.208 502.593 284.696 500.481 281.304C498.369 277.912 495.553 276.216 492.033 276.216C490.049 276.216 488.257 276.728 486.657 277.752C485.057 278.776 483.873 280.184 483.105 281.976V308.184C483.105 310.04 483.937 311.64 485.601 312.984ZM538.851 273.336C540.131 273.336 541.219 273.784 542.115 274.68C543.011 275.512 543.459 276.536 543.459 277.752C543.459 278.776 543.107 279.64 542.403 280.344C541.699 281.048 540.835 281.4 539.811 281.4C539.171 281.4 538.627 281.272 538.179 281.016C537.795 280.696 537.379 280.248 536.931 279.672C536.483 279.16 536.067 278.776 535.683 278.52C535.363 278.264 534.947 278.136 534.435 278.136C533.411 278.136 532.355 278.744 531.267 279.96C530.243 281.176 529.507 282.584 529.059 284.184V313.464L536.739 314.232V315H516.963V314.232L522.819 313.464V279.864L517.155 277.752V277.08L528.003 273.336H528.771V281.784C532.355 276.152 535.715 273.336 538.851 273.336ZM566.567 273.336C570.279 273.336 573.575 274.232 576.455 276.024C579.335 277.816 581.575 280.344 583.175 283.608C584.775 286.808 585.575 290.488 585.575 294.648C585.575 298.808 584.775 302.52 583.175 305.784C581.575 308.984 579.335 311.48 576.455 313.272C573.575 315.064 570.279 315.96 566.567 315.96C562.855 315.96 559.559 315.064 556.679 313.272C553.799 311.48 551.559 308.984 549.959 305.784C548.359 302.52 547.559 298.808 547.559 294.648C547.559 290.488 548.359 286.808 549.959 283.608C551.559 280.344 553.799 277.816 556.679 276.024C559.559 274.232 562.855 273.336 566.567 273.336ZM554.663 294.648C554.663 301.048 555.719 306.04 557.831 309.624C559.943 313.208 562.855 315 566.567 315C570.279 315 573.191 313.208 575.303 309.624C577.415 306.04 578.471 301.048 578.471 294.648C578.471 288.248 577.415 283.256 575.303 279.672C573.191 276.088 570.279 274.296 566.567 274.296C562.855 274.296 559.943 276.088 557.831 279.672C555.719 283.256 554.663 288.248 554.663 294.648ZM596.383 256.248C595.551 257.08 595.135 258.168 595.135 259.512C595.135 260.856 595.551 261.976 596.383 262.872C597.279 263.704 598.399 264.12 599.743 264.12C601.087 264.12 602.175 263.704 603.007 262.872C603.903 261.976 604.351 260.856 604.351 259.512C604.351 258.168 603.903 257.08 603.007 256.248C602.175 255.352 601.087 254.904 599.743 254.904C598.399 254.904 597.279 255.352 596.383 256.248ZM595.807 333.912C596.703 331.992 597.151 328.952 597.151 324.792V279.864L591.487 277.752V277.08L602.623 273.336H603.391V311.16C603.391 317.432 603.231 321.752 602.911 324.12C602.655 326.488 602.079 328.504 601.183 330.168C599.711 332.856 597.823 334.936 595.519 336.408C593.279 337.944 590.815 338.712 588.127 338.712C585.951 338.712 584.191 338.2 582.847 337.176C581.439 336.152 580.735 334.808 580.735 333.144C580.735 331.992 581.087 331.064 581.791 330.36C582.431 329.656 583.295 329.304 584.383 329.304C585.343 329.304 586.143 329.592 586.783 330.168C587.359 330.808 587.807 331.768 588.127 333.048C588.447 334.52 588.863 335.512 589.375 336.024C589.887 336.6 590.655 336.888 591.679 336.888C593.535 336.888 594.911 335.896 595.807 333.912ZM646.665 304.056L647.049 304.248L646.665 305.304C645.385 308.696 643.465 311.32 640.905 313.176C638.409 315.032 635.401 315.96 631.881 315.96C628.425 315.96 625.353 315.064 622.665 313.272C619.977 311.48 617.865 308.984 616.329 305.784C614.857 302.584 614.121 298.904 614.121 294.744C614.121 290.584 614.921 286.872 616.521 283.608C618.121 280.344 620.393 277.816 623.337 276.024C626.281 274.232 629.641 273.336 633.417 273.336C637.897 273.336 641.321 274.68 643.689 277.368C646.121 279.992 647.369 283.832 647.433 288.888L646.857 289.368H620.937C620.809 291.032 620.745 292.344 620.745 293.304C620.745 299.128 621.929 303.576 624.297 306.648C626.665 309.656 629.961 311.16 634.185 311.16C636.361 311.16 638.441 310.68 640.425 309.72C642.473 308.696 644.265 307.192 645.801 305.208L646.665 304.056ZM632.361 274.392C629.353 274.392 626.857 275.64 624.873 278.136C622.889 280.632 621.609 284.024 621.033 288.312L639.657 287.64C639.849 286.872 639.945 285.592 639.945 283.8C639.945 280.344 639.273 277.912 637.929 276.504C636.649 275.096 634.793 274.392 632.361 274.392ZM663.931 276.12C666.811 274.264 670.075 273.336 673.723 273.336C677.307 273.336 680.315 274.136 682.747 275.736C685.243 277.336 686.491 279.32 686.491 281.688C686.491 282.776 686.171 283.672 685.531 284.376C684.891 285.016 684.027 285.336 682.939 285.336C681.659 285.336 680.763 284.952 680.251 284.184C679.803 283.352 679.387 282.072 679.003 280.344C678.555 278.36 677.979 276.856 677.275 275.832C676.571 274.808 675.259 274.296 673.339 274.296C671.035 274.296 668.955 275.128 667.099 276.792C665.243 278.456 663.771 280.76 662.683 283.704C661.659 286.648 661.147 289.976 661.147 293.688C661.147 299.256 662.331 303.576 664.699 306.648C667.067 309.72 670.427 311.256 674.779 311.256C677.147 311.256 679.259 310.776 681.115 309.816C683.035 308.792 684.795 307.256 686.395 305.208L687.259 304.056L687.643 304.248L687.259 305.304C685.979 308.696 684.027 311.32 681.403 313.176C678.843 315.032 675.803 315.96 672.283 315.96C668.891 315.96 665.851 315.096 663.163 313.368C660.539 311.576 658.459 309.112 656.923 305.976C655.451 302.776 654.715 299.16 654.715 295.128C654.715 290.968 655.515 287.224 657.115 283.896C658.779 280.568 661.051 277.976 663.931 276.12ZM692.179 275.256L702.739 265.08L703.123 265.176V274.296H714.067L713.491 275.832H703.123V305.208C703.123 307.448 703.475 309.112 704.179 310.2C704.947 311.736 706.387 312.504 708.499 312.504C709.523 312.504 710.515 312.248 711.475 311.736C712.435 311.224 713.491 310.392 714.643 309.24L715.027 309.528C714.067 311.512 712.691 313.08 710.899 314.232C709.171 315.384 707.315 315.96 705.331 315.96C703.283 315.96 701.459 315.384 699.859 314.232C698.771 313.464 698.003 312.472 697.555 311.256C697.107 310.04 696.883 308.44 696.883 306.456V275.736H692.371L692.179 275.256Z" fill="white"/>
<defs>
<radialGradient id="paint0_radial_221_6" cx="0" cy="0" r="1" gradientUnits="userSpaceOnUse" gradientTransform="translate(500) rotate(90) scale(563 1000)">
<stop stop-color="#2A8DFF"/>
<stop offset="1" stop-color="#000E8A"/>
</radialGradient>
</defs>
</svg>
