<svg width="362" height="472" viewBox="0 0 362 472" fill="none" xmlns="http://www.w3.org/2000/svg">
<g clip-path="url(#clip0_153_7)">
<g filter="url(#filter0_d_153_7)">
<rect width="362" height="472" fill="url(#paint0_linear_153_7)" fill-opacity="0.95" shape-rendering="crispEdges"/>
<rect x="-5" y="-5" width="372" height="482" stroke="white" stroke-width="10" shape-rendering="crispEdges"/>
</g>
<rect x="3" y="240" width="356" height="230" rx="16" fill="url(#paint1_linear_153_7)" fill-opacity="0.95"/>
<mask id="path-4-outside-1_153_7" maskUnits="userSpaceOnUse" x="3" y="240" width="120" height="229" fill="black">
<rect fill="white" x="3" y="240" width="120" height="229"/>
<path d="M3 269C3 252.984 15.9837 240 32 240H121.667V469H32C15.9837 469 3 456.016 3 440V269Z"/>
</mask>
<path d="M3 240H121.667H3ZM121.667 469H3H121.667ZM3 469V240V469ZM122.667 240V469H120.667V240H122.667Z" fill="black" style="mix-blend-mode:overlay" mask="url(#path-4-outside-1_153_7)"/>
<mask id="path-6-outside-2_153_7" maskUnits="userSpaceOnUse" x="3" y="240" width="239" height="229" fill="black">
<rect fill="white" x="3" y="240" width="239" height="229"/>
<path d="M3 269C3 252.984 15.9837 240 32 240H240.34V469H32C15.9838 469 3 456.016 3 440V269Z"/>
</mask>
<path d="M3 240H240.34H3ZM240.34 469H3H240.34ZM3 469V240V469ZM241.34 240V469H239.34V240H241.34Z" fill="black" style="mix-blend-mode:overlay" mask="url(#path-6-outside-2_153_7)"/>
<mask id="path-8-outside-3_153_7" maskUnits="userSpaceOnUse" x="3" y="240" width="356" height="78" fill="black">
<rect fill="white" x="3" y="240" width="356" height="78"/>
<path d="M3 269C3 252.984 15.9837 240 32 240H359V316.333H3V269Z"/>
</mask>
<path d="M3 240H359H3ZM359 317.333H3V315.333H359V317.333ZM3 316.333V240V316.333ZM359 240V316.333V240Z" fill="black" style="mix-blend-mode:overlay" mask="url(#path-8-outside-3_153_7)"/>
<mask id="path-10-outside-4_153_7" maskUnits="userSpaceOnUse" x="3" y="240" width="356" height="154" fill="black">
<rect fill="white" x="3" y="240" width="356" height="154"/>
<path d="M3 269C3 252.984 15.9837 240 32 240H359V392.66H3V269Z"/>
</mask>
<path d="M3 240H359H3ZM359 393.66H3V391.66H359V393.66ZM3 392.66V240V392.66ZM359 240V392.66V240Z" fill="black" style="mix-blend-mode:overlay" mask="url(#path-10-outside-4_153_7)"/>
<rect x="-8.5" y="90.5" width="119" height="59" rx="29.5" fill="url(#paint2_linear_153_7)" style="mix-blend-mode:soft-light"/>
<rect x="-8.5" y="90.5" width="119" height="59" rx="29.5" stroke="url(#paint3_linear_153_7)" style="mix-blend-mode:overlay"/>
<rect x="121.5" y="90.5" width="119" height="59" rx="29.5" fill="url(#paint4_linear_153_7)" style="mix-blend-mode:soft-light"/>
<rect x="121.5" y="90.5" width="119" height="59" rx="29.5" stroke="url(#paint5_linear_153_7)" style="mix-blend-mode:overlay"/>
<rect x="251.5" y="90.5" width="119" height="59" rx="29.5" fill="url(#paint6_linear_153_7)" style="mix-blend-mode:soft-light"/>
<rect x="251.5" y="90.5" width="119" height="59" rx="29.5" stroke="url(#paint7_linear_153_7)" style="mix-blend-mode:overlay"/>
<rect x="-74.5" y="20.5" width="119" height="59" rx="29.5" fill="url(#paint8_linear_153_7)" style="mix-blend-mode:soft-light"/>
<rect x="-74.5" y="20.5" width="119" height="59" rx="29.5" stroke="url(#paint9_linear_153_7)" style="mix-blend-mode:overlay"/>
<rect x="55.5" y="20.5" width="119" height="59" rx="29.5" fill="url(#paint10_linear_153_7)" style="mix-blend-mode:soft-light"/>
<rect x="55.5" y="20.5" width="119" height="59" rx="29.5" stroke="url(#paint11_linear_153_7)" style="mix-blend-mode:overlay"/>
<rect x="185.5" y="20.5" width="119" height="59" rx="29.5" fill="url(#paint12_linear_153_7)" style="mix-blend-mode:soft-light"/>
<rect x="185.5" y="20.5" width="119" height="59" rx="29.5" stroke="url(#paint13_linear_153_7)" style="mix-blend-mode:overlay"/>
<rect x="315.5" y="20.5" width="119" height="59" rx="29.5" fill="url(#paint14_linear_153_7)" style="mix-blend-mode:soft-light"/>
<rect x="315.5" y="20.5" width="119" height="59" rx="29.5" stroke="url(#paint15_linear_153_7)" style="mix-blend-mode:overlay"/>
<rect x="-78.5" y="160.5" width="119" height="59" rx="29.5" fill="url(#paint16_linear_153_7)" style="mix-blend-mode:soft-light"/>
<rect x="-78.5" y="160.5" width="119" height="59" rx="29.5" stroke="url(#paint17_linear_153_7)" style="mix-blend-mode:overlay"/>
<rect x="51.5" y="160.5" width="119" height="59" rx="29.5" fill="url(#paint18_linear_153_7)" style="mix-blend-mode:soft-light"/>
<rect x="51.5" y="160.5" width="119" height="59" rx="29.5" stroke="url(#paint19_linear_153_7)" style="mix-blend-mode:overlay"/>
<rect x="181.5" y="160.5" width="119" height="59" rx="29.5" fill="url(#paint20_linear_153_7)" style="mix-blend-mode:soft-light"/>
<rect x="181.5" y="160.5" width="119" height="59" rx="29.5" stroke="url(#paint21_linear_153_7)" style="mix-blend-mode:overlay"/>
<rect x="311.5" y="160.5" width="119" height="59" rx="29.5" fill="url(#paint22_linear_153_7)" style="mix-blend-mode:soft-light"/>
<rect x="311.5" y="160.5" width="119" height="59" rx="29.5" stroke="url(#paint23_linear_153_7)" style="mix-blend-mode:overlay"/>
<path d="M181 129.267L188.187 127.383L189.156 117.216H176.374L176.056 113.835H189.475L189.828 110.518H172.172L173.162 120.536H185.326L184.92 124.834L181 125.835L177.08 124.834L176.834 122.068H173.303L173.815 127.385L181 129.267ZM167 105H195L192.475 132L181 135L169.525 132L167 105Z" fill="black"/>
<path d="M181 129.267L188.187 127.383L189.156 117.216H176.374L176.056 113.835H189.475L189.828 110.518H172.172L173.162 120.536H185.326L184.92 124.834L181 125.835L177.08 124.834L176.834 122.068H173.303L173.815 127.385L181 129.267ZM167 105H195L192.475 132L181 135L169.525 132L167 105Z" fill="url(#paint24_linear_153_7)"/>
<path d="M65 104.795L63.4718 131.528L51.0014 136.205L38.5282 131.528L37 104.795H65ZM43.0209 124.924V124.93L43.1809 127.705L51 130.638L58.8191 127.705L59.3827 117.846H49.515L59.6611 112.988L59.81 110.362H41.9283L42.2958 113.162L51.0014 113.146H52.8845L42.6284 118.056L42.7759 120.629H56.4349L56.1427 125.737L51 127.663L45.8559 125.734L45.8003 124.774L45.7154 122.988H42.9179L43.0209 124.924Z" fill="black"/>
<path d="M65 104.795L63.4718 131.528L51.0014 136.205L38.5282 131.528L37 104.795H65ZM43.0209 124.924V124.93L43.1809 127.705L51 130.638L58.8191 127.705L59.3827 117.846H49.515L59.6611 112.988L59.81 110.362H41.9283L42.2958 113.162L51.0014 113.146H52.8845L42.6284 118.056L42.7759 120.629H56.4349L56.1427 125.737L51 127.663L45.8559 125.734L45.8003 124.774L45.7154 122.988H42.9179L43.0209 124.924Z" fill="url(#paint25_linear_153_7)"/>
<path d="M311 106C318.7 106 325 112.3 325 120C325 127.7 318.7 134 311 134C303.3 134 297 127.7 297 120C297 112.3 303.3 106 311 106ZM308.2 124.637C308.375 125.425 308.375 126.125 308.2 126.737L308.112 127C308.112 127.087 308.025 127.175 308.025 127.175C307.85 127.525 307.675 127.787 307.412 128.137C306.625 129.012 305.487 129.362 304.962 129.1C304.437 128.837 304.7 127.525 305.662 126.562C306.712 125.512 308.112 124.812 308.112 124.812L308.2 124.637ZM319.75 111.95C319.137 109.5 315.025 108.625 311.087 110.025C308.812 110.9 306.275 112.212 304.437 113.875C302.25 115.887 301.987 117.637 302.075 118.337C302.6 120.875 306.1 122.625 307.587 123.85C307.15 124.025 304 125.6 303.3 127.262C302.512 129.012 303.387 130.237 304 130.325C305.837 130.85 307.762 129.888 308.725 128.4C309.687 126.913 309.6 125.075 309.162 124.112C309.843 123.902 310.567 123.872 311.262 124.025C313.712 124.287 314.237 125.862 314.062 126.475C313.887 127.087 313.45 127.437 313.275 127.612C313.1 127.7 313.012 127.787 313.1 127.787C313.1 127.875 313.187 127.875 313.362 127.875C313.537 127.875 314.675 127.35 314.675 126.125C314.762 124.637 313.275 122.975 310.737 122.975C309.687 122.975 308.987 123.062 308.55 123.237C308.55 123.15 308.462 123.15 308.462 123.15C306.887 121.487 304 120.262 304.087 117.987C304.087 117.2 304.437 115.012 309.687 112.387C313.975 110.2 317.475 110.812 318.088 112.125C318.963 113.962 316.25 117.462 311.787 117.987C310.037 118.162 309.162 117.55 308.987 117.287C308.725 117.025 308.725 117.025 308.638 117.025C308.463 117.112 308.55 117.287 308.638 117.462C308.813 117.812 309.337 118.425 310.3 118.775C311.087 119.037 313.1 119.212 315.55 118.25C318.262 117.2 320.362 114.312 319.75 111.862V111.95Z" fill="black"/>
<path d="M311 106C318.7 106 325 112.3 325 120C325 127.7 318.7 134 311 134C303.3 134 297 127.7 297 120C297 112.3 303.3 106 311 106ZM308.2 124.637C308.375 125.425 308.375 126.125 308.2 126.737L308.112 127C308.112 127.087 308.025 127.175 308.025 127.175C307.85 127.525 307.675 127.787 307.412 128.137C306.625 129.012 305.487 129.362 304.962 129.1C304.437 128.837 304.7 127.525 305.662 126.562C306.712 125.512 308.112 124.812 308.112 124.812L308.2 124.637ZM319.75 111.95C319.137 109.5 315.025 108.625 311.087 110.025C308.812 110.9 306.275 112.212 304.437 113.875C302.25 115.887 301.987 117.637 302.075 118.337C302.6 120.875 306.1 122.625 307.587 123.85C307.15 124.025 304 125.6 303.3 127.262C302.512 129.012 303.387 130.237 304 130.325C305.837 130.85 307.762 129.888 308.725 128.4C309.687 126.913 309.6 125.075 309.162 124.112C309.843 123.902 310.567 123.872 311.262 124.025C313.712 124.287 314.237 125.862 314.062 126.475C313.887 127.087 313.45 127.437 313.275 127.612C313.1 127.7 313.012 127.787 313.1 127.787C313.1 127.875 313.187 127.875 313.362 127.875C313.537 127.875 314.675 127.35 314.675 126.125C314.762 124.637 313.275 122.975 310.737 122.975C309.687 122.975 308.987 123.062 308.55 123.237C308.55 123.15 308.462 123.15 308.462 123.15C306.887 121.487 304 120.262 304.087 117.987C304.087 117.2 304.437 115.012 309.687 112.387C313.975 110.2 317.475 110.812 318.088 112.125C318.963 113.962 316.25 117.462 311.787 117.987C310.037 118.162 309.162 117.55 308.987 117.287C308.725 117.025 308.725 117.025 308.638 117.025C308.463 117.112 308.55 117.287 308.638 117.462C308.813 117.812 309.337 118.425 310.3 118.775C311.087 119.037 313.1 119.212 315.55 118.25C318.262 117.2 320.362 114.312 319.75 111.862V111.95Z" fill="url(#paint26_linear_153_7)"/>
<path d="M242.83 36C238.314 36 236.055 36 234.389 37.003C233.411 37.5919 232.592 38.4113 232.003 39.3895C231 41.0554 231 43.3136 231 47.83V52.17C231 56.6864 231 58.9446 232.003 60.6105C232.592 61.5887 233.411 62.4081 234.389 62.997C236.055 64 238.314 64 242.83 64H247.17C251.686 64 253.945 64 255.611 62.997C256.589 62.4081 257.408 61.5887 257.997 60.6105C259 58.9446 259 56.6864 259 52.17V47.83C259 43.3136 259 41.0554 257.997 39.3895C257.408 38.4113 256.589 37.5919 255.611 37.003C253.945 36 251.686 36 247.17 36H242.83ZM246.238 57.837C246.238 60.562 244.638 61.806 242.307 61.806C240.201 61.806 238.982 60.719 238.357 59.4L240.501 58.106C240.914 58.837 241.289 59.456 242.195 59.456C243.057 59.456 243.607 59.118 243.607 57.8V48.856H246.238V57.837ZM252.462 61.806C250.018 61.806 248.437 60.644 247.668 59.118L249.812 57.881C250.375 58.8 251.112 59.481 252.406 59.481C253.493 59.481 254.194 58.937 254.194 58.181C254.194 57.281 253.481 56.962 252.275 56.431L251.619 56.15C249.719 55.344 248.463 54.325 248.463 52.181C248.463 50.206 249.969 48.706 252.313 48.706C253.988 48.706 255.188 49.287 256.051 50.812L254.001 52.125C253.551 51.319 253.063 51 252.307 51C251.539 51 251.051 51.488 251.051 52.125C251.051 52.913 251.539 53.231 252.67 53.725L253.326 54.006C255.564 54.962 256.82 55.944 256.82 58.143C256.82 60.506 254.957 61.805 252.463 61.805L252.462 61.806Z" fill="black"/>
<path d="M242.83 36C238.314 36 236.055 36 234.389 37.003C233.411 37.5919 232.592 38.4113 232.003 39.3895C231 41.0554 231 43.3136 231 47.83V52.17C231 56.6864 231 58.9446 232.003 60.6105C232.592 61.5887 233.411 62.4081 234.389 62.997C236.055 64 238.314 64 242.83 64H247.17C251.686 64 253.945 64 255.611 62.997C256.589 62.4081 257.408 61.5887 257.997 60.6105C259 58.9446 259 56.6864 259 52.17V47.83C259 43.3136 259 41.0554 257.997 39.3895C257.408 38.4113 256.589 37.5919 255.611 37.003C253.945 36 251.686 36 247.17 36H242.83ZM246.238 57.837C246.238 60.562 244.638 61.806 242.307 61.806C240.201 61.806 238.982 60.719 238.357 59.4L240.501 58.106C240.914 58.837 241.289 59.456 242.195 59.456C243.057 59.456 243.607 59.118 243.607 57.8V48.856H246.238V57.837ZM252.462 61.806C250.018 61.806 248.437 60.644 247.668 59.118L249.812 57.881C250.375 58.8 251.112 59.481 252.406 59.481C253.493 59.481 254.194 58.937 254.194 58.181C254.194 57.281 253.481 56.962 252.275 56.431L251.619 56.15C249.719 55.344 248.463 54.325 248.463 52.181C248.463 50.206 249.969 48.706 252.313 48.706C253.988 48.706 255.188 49.287 256.051 50.812L254.001 52.125C253.551 51.319 253.063 51 252.307 51C251.539 51 251.051 51.488 251.051 52.125C251.051 52.913 251.539 53.231 252.67 53.725L253.326 54.006C255.564 54.962 256.82 55.944 256.82 58.143C256.82 60.506 254.957 61.805 252.463 61.805L252.462 61.806Z" fill="url(#paint27_linear_153_7)"/>
<path d="M255 189.641C255 192.955 248.732 195.641 241 195.641C233.268 195.641 227 192.955 227 189.641C227 186.327 233.268 183.641 241 183.641C248.732 183.641 255 186.327 255 189.641Z" stroke="url(#paint28_linear_153_7)" stroke-width="2.4"/>
<path d="M234.332 201.951C237.246 203.531 242.592 199.297 246.276 192.499C249.958 185.699 250.582 178.909 247.668 177.331C244.754 175.751 239.408 179.985 235.724 186.783C232.042 193.583 231.418 200.373 234.332 201.951Z" stroke="url(#paint29_linear_153_7)" stroke-width="2.4"/>
<path d="M247.668 201.951C244.754 203.531 239.408 199.297 235.724 192.499C232.042 185.699 231.418 178.909 234.332 177.331C237.246 175.751 242.592 179.985 246.276 186.783C249.958 193.583 250.582 200.373 247.668 201.951Z" stroke="url(#paint30_linear_153_7)" stroke-width="2.4"/>
<path d="M239 189.641C239 190.171 239.211 190.68 239.586 191.055C239.961 191.43 240.47 191.641 241 191.641C241.53 191.641 242.039 191.43 242.414 191.055C242.789 190.68 243 190.171 243 189.641C243 189.11 242.789 188.601 242.414 188.226C242.039 187.851 241.53 187.641 241 187.641C240.47 187.641 239.961 187.851 239.586 188.226C239.211 188.601 239 189.11 239 189.641Z" stroke="url(#paint31_linear_153_7)" stroke-width="2.4"/>
<path d="M115 64C107.268 64 101 57.7322 101 50C101 42.2678 107.268 36 115 36C122.732 36 129 42.2678 129 50C129 57.7322 122.732 64 115 64ZM120.6 44.4H118.71V50H120.6V44.4ZM111.284 46.794L119.767 57.7532L121.243 56.6206L111.756 44.4H109.4V55.5958H111.284V46.794Z" fill="black"/>
<path d="M115 64C107.268 64 101 57.7322 101 50C101 42.2678 107.268 36 115 36C122.732 36 129 42.2678 129 50C129 57.7322 122.732 64 115 64ZM120.6 44.4H118.71V50H120.6V44.4ZM111.284 46.794L119.767 57.7532L121.243 56.6206L111.756 44.4H109.4V55.5958H111.284V46.794Z" fill="url(#paint32_linear_153_7)"/>
<path d="M110.695 181.206C109.052 181.184 107.459 181.768 106.22 182.845C104.98 183.923 104.181 185.419 103.975 187.049C104.372 186.371 104.93 185.802 105.599 185.39C106.268 184.978 107.028 184.737 107.812 184.687C110.177 184.687 111.976 187.448 113.073 188.309C114.121 189.137 115.359 189.69 116.675 189.919C117.991 190.147 119.343 190.044 120.608 189.618C123.408 188.724 124.716 185.607 125 184.128C123.643 186.059 121.584 187.218 119.037 185.852C117.283 184.909 115.971 181.038 110.695 181.206ZM103.72 189.969C102.078 189.946 100.484 190.529 99.2446 191.606C98.0049 192.684 97.2058 194.18 97 195.81C97.3982 195.132 97.9568 194.561 98.6269 194.15C99.297 193.738 100.058 193.497 100.843 193.448C103.208 193.448 105.007 196.209 106.104 197.07C107.152 197.898 108.39 198.451 109.706 198.68C111.021 198.909 112.373 198.805 113.639 198.379C116.439 197.486 117.745 194.368 118.031 192.889C116.673 194.82 114.615 195.981 112.068 194.613C110.314 193.671 109.002 189.793 103.72 189.969Z" fill="black"/>
<path d="M110.695 181.206C109.052 181.184 107.459 181.768 106.22 182.845C104.98 183.923 104.181 185.419 103.975 187.049C104.372 186.371 104.93 185.802 105.599 185.39C106.268 184.978 107.028 184.737 107.812 184.687C110.177 184.687 111.976 187.448 113.073 188.309C114.121 189.137 115.359 189.69 116.675 189.919C117.991 190.147 119.343 190.044 120.608 189.618C123.408 188.724 124.716 185.607 125 184.128C123.643 186.059 121.584 187.218 119.037 185.852C117.283 184.909 115.971 181.038 110.695 181.206ZM103.72 189.969C102.078 189.946 100.484 190.529 99.2446 191.606C98.0049 192.684 97.2058 194.18 97 195.81C97.3982 195.132 97.9568 194.561 98.6269 194.15C99.297 193.738 100.058 193.497 100.843 193.448C103.208 193.448 105.007 196.209 106.104 197.07C107.152 197.898 108.39 198.451 109.706 198.68C111.021 198.909 112.373 198.805 113.639 198.379C116.439 197.486 117.745 194.368 118.031 192.889C116.673 194.82 114.615 195.981 112.068 194.613C110.314 193.671 109.002 189.793 103.72 189.969Z" fill="url(#paint33_linear_153_7)"/>
<path d="M42.232 271.8H43.832V276.552H49.192V271.8H50.792V283H49.192V278.024H43.832V283H42.232V271.8ZM55.5033 273.272H52.1753V271.8H60.4473V273.272H57.1033V283H55.5033V273.272ZM73.2504 283H71.6664V274.76L68.1464 283H66.9624L63.4744 274.792L63.4584 283H61.8744V271.8H63.6984L67.5704 280.856L71.4264 271.8H73.2664L73.2504 283ZM75.4595 271.8H77.0595V281.528H82.1955V283H75.4595V271.8Z" fill="#000228"/>
<path d="M172.637 283.224C171.538 283.224 170.562 282.979 169.709 282.488C168.855 281.997 168.189 281.315 167.709 280.44C167.239 279.555 167.005 278.541 167.005 277.4C167.005 276.291 167.245 275.293 167.725 274.408C168.205 273.523 168.866 272.829 169.709 272.328C170.562 271.827 171.522 271.576 172.589 271.576C173.794 271.576 174.829 271.88 175.693 272.488C176.567 273.096 177.186 273.949 177.549 275.048L176.013 275.56C175.757 274.76 175.341 274.141 174.765 273.704C174.189 273.267 173.469 273.048 172.605 273.048C171.847 273.048 171.165 273.24 170.557 273.624C169.949 273.997 169.469 274.515 169.117 275.176C168.775 275.837 168.605 276.579 168.605 277.4C168.605 278.243 168.775 278.995 169.117 279.656C169.469 280.317 169.949 280.835 170.557 281.208C171.175 281.571 171.874 281.752 172.653 281.752C173.517 281.752 174.226 281.544 174.781 281.128C175.346 280.712 175.746 280.157 175.981 279.464L177.501 279.96C177.106 280.995 176.498 281.8 175.677 282.376C174.855 282.941 173.842 283.224 172.637 283.224ZM182.857 283.208C181.748 283.208 180.831 282.941 180.105 282.408C179.38 281.864 178.884 281.064 178.617 280.008L180.121 279.576C180.313 280.323 180.628 280.877 181.065 281.24C181.503 281.592 182.1 281.768 182.857 281.768C183.583 281.768 184.169 281.608 184.617 281.288C185.076 280.968 185.305 280.509 185.305 279.912C185.305 279.464 185.14 279.091 184.809 278.792C184.489 278.483 183.849 278.237 182.889 278.056C181.609 277.832 180.639 277.464 179.977 276.952C179.316 276.429 178.985 275.709 178.985 274.792C178.985 274.152 179.151 273.587 179.481 273.096C179.823 272.605 180.287 272.227 180.873 271.96C181.46 271.693 182.121 271.56 182.857 271.56C183.881 271.56 184.713 271.827 185.353 272.36C186.004 272.893 186.452 273.645 186.697 274.616L185.209 275.048C185.049 274.376 184.783 273.869 184.409 273.528C184.036 273.176 183.519 273 182.857 273C182.175 273 181.625 273.16 181.209 273.48C180.793 273.789 180.585 274.227 180.585 274.792C180.585 275.293 180.788 275.667 181.193 275.912C181.599 276.157 182.255 276.365 183.161 276.536C184.441 276.803 185.385 277.203 185.993 277.736C186.601 278.259 186.905 278.984 186.905 279.912C186.905 280.573 186.724 281.155 186.361 281.656C186.009 282.147 185.524 282.531 184.905 282.808C184.297 283.075 183.615 283.208 182.857 283.208ZM192.162 283.208C191.053 283.208 190.136 282.941 189.41 282.408C188.685 281.864 188.189 281.064 187.922 280.008L189.426 279.576C189.618 280.323 189.933 280.877 190.37 281.24C190.808 281.592 191.405 281.768 192.162 281.768C192.888 281.768 193.474 281.608 193.922 281.288C194.381 280.968 194.61 280.509 194.61 279.912C194.61 279.464 194.445 279.091 194.114 278.792C193.794 278.483 193.154 278.237 192.194 278.056C190.914 277.832 189.944 277.464 189.282 276.952C188.621 276.429 188.29 275.709 188.29 274.792C188.29 274.152 188.456 273.587 188.786 273.096C189.128 272.605 189.592 272.227 190.178 271.96C190.765 271.693 191.426 271.56 192.162 271.56C193.186 271.56 194.018 271.827 194.658 272.36C195.309 272.893 195.757 273.645 196.002 274.616L194.514 275.048C194.354 274.376 194.088 273.869 193.714 273.528C193.341 273.176 192.824 273 192.162 273C191.48 273 190.93 273.16 190.514 273.48C190.098 273.789 189.89 274.227 189.89 274.792C189.89 275.293 190.093 275.667 190.498 275.912C190.904 276.157 191.56 276.365 192.466 276.536C193.746 276.803 194.69 277.203 195.298 277.736C195.906 278.259 196.21 278.984 196.21 279.912C196.21 280.573 196.029 281.155 195.666 281.656C195.314 282.147 194.829 282.531 194.21 282.808C193.602 283.075 192.92 283.208 192.162 283.208Z" fill="#000228"/>
<path d="M257.247 273.272H253.919V271.8H262.191V273.272H258.847V283H257.247V273.272ZM264.153 283.224C263.609 283.224 263.129 283.123 262.713 282.92C262.297 282.707 261.977 282.419 261.753 282.056C261.529 281.683 261.417 281.267 261.417 280.808C261.417 280.125 261.651 279.565 262.121 279.128C262.601 278.68 263.395 278.376 264.505 278.216L266.409 277.944V277.768C266.409 276.691 265.843 276.152 264.713 276.152C264.169 276.152 263.753 276.28 263.465 276.536C263.187 276.781 263.011 277.133 262.937 277.592L261.545 277.256C261.929 275.667 262.995 274.872 264.745 274.872C265.715 274.872 266.494 275.117 267.081 275.608C267.678 276.099 267.977 276.813 267.977 277.752V283H266.649L266.489 282.232C266.009 282.893 265.23 283.224 264.153 283.224ZM264.537 281.928C265.059 281.928 265.502 281.779 265.865 281.48C266.227 281.181 266.409 280.749 266.409 280.184V279.144L264.633 279.416C264.067 279.501 263.641 279.645 263.353 279.848C263.075 280.04 262.937 280.333 262.937 280.728C262.937 281.091 263.081 281.384 263.369 281.608C263.657 281.821 264.046 281.928 264.537 281.928ZM269.654 275.08H271.222V283H269.654V275.08ZM270.454 273.912C270.166 273.912 269.921 273.816 269.718 273.624C269.515 273.421 269.414 273.176 269.414 272.888C269.414 272.611 269.515 272.371 269.718 272.168C269.921 271.965 270.166 271.864 270.454 271.864C270.731 271.864 270.966 271.965 271.158 272.168C271.361 272.371 271.462 272.611 271.462 272.888C271.462 273.176 271.361 273.421 271.158 273.624C270.966 273.816 270.731 273.912 270.454 273.912ZM273.067 271.8H274.635V283H273.067V271.8ZM287.235 275.08L284.787 283H283.171L281.427 277.032L279.667 283H278.051L275.603 275.08H277.187L278.899 281.128L280.643 275.08H282.179L283.939 281.112L285.651 275.08H287.235ZM288.288 275.08H289.856V283H288.288V275.08ZM289.088 273.912C288.8 273.912 288.554 273.816 288.352 273.624C288.149 273.421 288.048 273.176 288.048 272.888C288.048 272.611 288.149 272.371 288.352 272.168C288.554 271.965 288.8 271.864 289.088 271.864C289.365 271.864 289.6 271.965 289.792 272.168C289.994 272.371 290.096 272.611 290.096 272.888C290.096 273.176 289.994 273.421 289.792 273.624C289.6 273.816 289.365 273.912 289.088 273.912ZM291.7 275.08H292.996L293.236 276.088C293.844 275.267 294.682 274.856 295.748 274.856C296.623 274.856 297.306 275.117 297.796 275.64C298.287 276.163 298.532 276.957 298.532 278.024V283H296.964V278.296C296.964 277.571 296.815 277.064 296.516 276.776C296.218 276.477 295.802 276.328 295.268 276.328C294.703 276.328 294.228 276.531 293.844 276.936C293.46 277.331 293.268 277.88 293.268 278.584V283H291.7V275.08ZM303.727 283.208C302.991 283.208 302.329 283.016 301.743 282.632C301.167 282.237 300.719 281.72 300.399 281.08C300.079 280.44 299.919 279.757 299.919 279.032C299.919 278.285 300.068 277.597 300.367 276.968C300.676 276.328 301.119 275.816 301.695 275.432C302.271 275.048 302.943 274.856 303.711 274.856C304.297 274.856 304.815 274.973 305.263 275.208C305.711 275.443 306.068 275.741 306.335 276.104V271.8H307.903V283H306.607L306.399 281.928C306.132 282.291 305.775 282.595 305.327 282.84C304.879 283.085 304.345 283.208 303.727 283.208ZM303.919 281.8C304.633 281.8 305.215 281.544 305.663 281.032C306.111 280.509 306.335 279.843 306.335 279.032C306.335 278.221 306.111 277.56 305.663 277.048C305.215 276.525 304.633 276.264 303.919 276.264C303.449 276.264 303.028 276.381 302.655 276.616C302.292 276.851 302.004 277.181 301.791 277.608C301.588 278.024 301.487 278.499 301.487 279.032C301.487 279.555 301.588 280.029 301.791 280.456C302.004 280.872 302.292 281.203 302.655 281.448C303.028 281.683 303.449 281.8 303.919 281.8ZM319.306 283.224C318.207 283.224 317.231 282.979 316.378 282.488C315.525 281.997 314.858 281.315 314.378 280.44C313.909 279.555 313.674 278.541 313.674 277.4C313.674 276.291 313.914 275.293 314.394 274.408C314.874 273.523 315.535 272.829 316.378 272.328C317.231 271.827 318.191 271.576 319.258 271.576C320.463 271.576 321.498 271.88 322.362 272.488C323.237 273.096 323.855 273.949 324.218 275.048L322.682 275.56C322.426 274.76 322.01 274.141 321.434 273.704C320.858 273.267 320.138 273.048 319.274 273.048C318.517 273.048 317.834 273.24 317.226 273.624C316.618 273.997 316.138 274.515 315.786 275.176C315.445 275.837 315.274 276.579 315.274 277.4C315.274 278.243 315.445 278.995 315.786 279.656C316.138 280.317 316.618 280.835 317.226 281.208C317.845 281.571 318.543 281.752 319.322 281.752C320.186 281.752 320.895 281.544 321.45 281.128C322.015 280.712 322.415 280.157 322.65 279.464L324.17 279.96C323.775 280.995 323.167 281.8 322.346 282.376C321.525 282.941 320.511 283.224 319.306 283.224ZM329.527 283.208C328.417 283.208 327.5 282.941 326.775 282.408C326.049 281.864 325.553 281.064 325.287 280.008L326.791 279.576C326.983 280.323 327.297 280.877 327.735 281.24C328.172 281.592 328.769 281.768 329.527 281.768C330.252 281.768 330.839 281.608 331.287 281.288C331.745 280.968 331.975 280.509 331.975 279.912C331.975 279.464 331.809 279.091 331.479 278.792C331.159 278.483 330.519 278.237 329.559 278.056C328.279 277.832 327.308 277.464 326.647 276.952C325.985 276.429 325.655 275.709 325.655 274.792C325.655 274.152 325.82 273.587 326.151 273.096C326.492 272.605 326.956 272.227 327.543 271.96C328.129 271.693 328.791 271.56 329.527 271.56C330.551 271.56 331.383 271.827 332.023 272.36C332.673 272.893 333.121 273.645 333.367 274.616L331.879 275.048C331.719 274.376 331.452 273.869 331.079 273.528C330.705 273.176 330.188 273 329.527 273C328.844 273 328.295 273.16 327.879 273.48C327.463 273.789 327.255 274.227 327.255 274.792C327.255 275.293 327.457 275.667 327.863 275.912C328.268 276.157 328.924 276.365 329.831 276.536C331.111 276.803 332.055 277.203 332.663 277.736C333.271 278.259 333.575 278.984 333.575 279.912C333.575 280.573 333.393 281.155 333.031 281.656C332.679 282.147 332.193 282.531 331.575 282.808C330.967 283.075 330.284 283.208 329.527 283.208ZM338.832 283.208C337.722 283.208 336.805 282.941 336.08 282.408C335.354 281.864 334.858 281.064 334.592 280.008L336.096 279.576C336.288 280.323 336.602 280.877 337.04 281.24C337.477 281.592 338.074 281.768 338.832 281.768C339.557 281.768 340.144 281.608 340.592 281.288C341.05 280.968 341.28 280.509 341.28 279.912C341.28 279.464 341.114 279.091 340.784 278.792C340.464 278.483 339.824 278.237 338.864 278.056C337.584 277.832 336.613 277.464 335.952 276.952C335.29 276.429 334.96 275.709 334.96 274.792C334.96 274.152 335.125 273.587 335.456 273.096C335.797 272.605 336.261 272.227 336.848 271.96C337.434 271.693 338.096 271.56 338.832 271.56C339.856 271.56 340.688 271.827 341.328 272.36C341.978 272.893 342.426 273.645 342.672 274.616L341.184 275.048C341.024 274.376 340.757 273.869 340.384 273.528C340.01 273.176 339.493 273 338.832 273C338.149 273 337.6 273.16 337.184 273.48C336.768 273.789 336.56 274.227 336.56 274.792C336.56 275.293 336.762 275.667 337.168 275.912C337.573 276.157 338.229 276.365 339.136 276.536C340.416 276.803 341.36 277.203 341.968 277.736C342.576 278.259 342.88 278.984 342.88 279.912C342.88 280.573 342.698 281.155 342.336 281.656C341.984 282.147 341.498 282.531 340.88 282.808C340.272 283.075 339.589 283.208 338.832 283.208Z" fill="#000228"/>
<path d="M28.9731 360.224C28.0237 360.224 27.2451 359.952 26.6371 359.408C26.0397 358.853 25.7304 358.117 25.7091 357.2V356.608L27.2771 356.896V357.072C27.2771 357.573 27.4264 357.979 27.7251 358.288C28.0237 358.597 28.4397 358.752 28.9731 358.752C29.5277 358.752 29.9491 358.581 30.2371 358.24C30.5357 357.888 30.6851 357.403 30.6851 356.784V348.8H32.2851V356.736C32.2851 357.877 31.9864 358.747 31.3891 359.344C30.8024 359.931 29.9971 360.224 28.9731 360.224ZM36.5671 360.224C36.0231 360.224 35.5431 360.123 35.1271 359.92C34.7111 359.707 34.3911 359.419 34.1671 359.056C33.9431 358.683 33.8311 358.267 33.8311 357.808C33.8311 357.125 34.0657 356.565 34.5351 356.128C35.0151 355.68 35.8097 355.376 36.9191 355.216L38.8231 354.944V354.768C38.8231 353.691 38.2577 353.152 37.1271 353.152C36.5831 353.152 36.1671 353.28 35.8791 353.536C35.6017 353.781 35.4257 354.133 35.3511 354.592L33.9591 354.256C34.3431 352.667 35.4097 351.872 37.1591 351.872C38.1297 351.872 38.9084 352.117 39.4951 352.608C40.0924 353.099 40.3911 353.813 40.3911 354.752V360H39.0631L38.9031 359.232C38.4231 359.893 37.6444 360.224 36.5671 360.224ZM36.9511 358.928C37.4737 358.928 37.9164 358.779 38.2791 358.48C38.6417 358.181 38.8231 357.749 38.8231 357.184V356.144L37.0471 356.416C36.4817 356.501 36.0551 356.645 35.7671 356.848C35.4897 357.04 35.3511 357.333 35.3511 357.728C35.3511 358.091 35.4951 358.384 35.7831 358.608C36.0711 358.821 36.4604 358.928 36.9511 358.928ZM48.7442 352.08L45.7362 360H44.0722L41.0482 352.08H42.6642L44.9042 358.224L47.1442 352.08H48.7442ZM51.9271 360.224C51.3831 360.224 50.9031 360.123 50.4871 359.92C50.0711 359.707 49.7511 359.419 49.5271 359.056C49.3031 358.683 49.1911 358.267 49.1911 357.808C49.1911 357.125 49.4257 356.565 49.8951 356.128C50.3751 355.68 51.1697 355.376 52.2791 355.216L54.1831 354.944V354.768C54.1831 353.691 53.6177 353.152 52.4871 353.152C51.9431 353.152 51.5271 353.28 51.2391 353.536C50.9617 353.781 50.7857 354.133 50.7111 354.592L49.3191 354.256C49.7031 352.667 50.7697 351.872 52.5191 351.872C53.4897 351.872 54.2684 352.117 54.8551 352.608C55.4524 353.099 55.7511 353.813 55.7511 354.752V360H54.4231L54.2631 359.232C53.7831 359.893 53.0044 360.224 51.9271 360.224ZM52.3111 358.928C52.8337 358.928 53.2764 358.779 53.6391 358.48C54.0017 358.181 54.1831 357.749 54.1831 357.184V356.144L52.4071 356.416C51.8417 356.501 51.4151 356.645 51.1271 356.848C50.8497 357.04 50.7111 357.333 50.7111 357.728C50.7111 358.091 50.8551 358.384 51.1431 358.608C51.4311 358.821 51.8204 358.928 52.3111 358.928ZM61.2204 360.208C60.1111 360.208 59.1938 359.941 58.4684 359.408C57.7431 358.864 57.2471 358.064 56.9804 357.008L58.4844 356.576C58.6764 357.323 58.9911 357.877 59.4284 358.24C59.8658 358.592 60.4631 358.768 61.2204 358.768C61.9458 358.768 62.5324 358.608 62.9804 358.288C63.4391 357.968 63.6684 357.509 63.6684 356.912C63.6684 356.464 63.5031 356.091 63.1724 355.792C62.8524 355.483 62.2124 355.237 61.2524 355.056C59.9724 354.832 59.0018 354.464 58.3404 353.952C57.6791 353.429 57.3484 352.709 57.3484 351.792C57.3484 351.152 57.5138 350.587 57.8444 350.096C58.1858 349.605 58.6498 349.227 59.2364 348.96C59.8231 348.693 60.4844 348.56 61.2204 348.56C62.2444 348.56 63.0764 348.827 63.7164 349.36C64.3671 349.893 64.8151 350.645 65.0604 351.616L63.5724 352.048C63.4124 351.376 63.1458 350.869 62.7724 350.528C62.3991 350.176 61.8818 350 61.2204 350C60.5378 350 59.9884 350.16 59.5724 350.48C59.1564 350.789 58.9484 351.227 58.9484 351.792C58.9484 352.293 59.1511 352.667 59.5564 352.912C59.9618 353.157 60.6178 353.365 61.5244 353.536C62.8044 353.803 63.7484 354.203 64.3564 354.736C64.9644 355.259 65.2684 355.984 65.2684 356.912C65.2684 357.573 65.0871 358.155 64.7244 358.656C64.3724 359.147 63.8871 359.531 63.2684 359.808C62.6604 360.075 61.9778 360.208 61.2204 360.208ZM70.3334 360.224C69.5228 360.224 68.8081 360.037 68.1894 359.664C67.5814 359.28 67.1121 358.768 66.7814 358.128C66.4508 357.488 66.2854 356.795 66.2854 356.048C66.2854 355.291 66.4508 354.592 66.7814 353.952C67.1228 353.312 67.5974 352.805 68.2054 352.432C68.8241 352.048 69.5334 351.856 70.3334 351.856C71.2081 351.856 71.9494 352.08 72.5574 352.528C73.1654 352.976 73.5921 353.573 73.8374 354.32L72.3974 354.8C72.2481 354.331 71.9921 353.963 71.6294 353.696C71.2668 353.429 70.8348 353.296 70.3334 353.296C69.8534 353.296 69.4268 353.413 69.0534 353.648C68.6801 353.883 68.3868 354.213 68.1734 354.64C67.9601 355.056 67.8534 355.525 67.8534 356.048C67.8534 356.571 67.9601 357.04 68.1734 357.456C68.3868 357.872 68.6801 358.197 69.0534 358.432C69.4268 358.667 69.8534 358.784 70.3334 358.784C70.8241 358.784 71.2508 358.651 71.6134 358.384C71.9761 358.117 72.2374 357.755 72.3974 357.296L73.8214 357.776C73.5441 358.512 73.1014 359.104 72.4934 359.552C71.8961 360 71.1761 360.224 70.3334 360.224ZM75.2553 352.08H76.5513L76.7913 353.072C76.9833 352.731 77.2553 352.443 77.6073 352.208C77.97 351.973 78.386 351.856 78.8553 351.856C79.1646 351.856 79.442 351.899 79.6873 351.984C79.9326 352.059 80.13 352.149 80.2793 352.256L79.6713 353.632C79.5753 353.557 79.4366 353.493 79.2553 353.44C79.0846 353.376 78.882 353.344 78.6473 353.344C78.1246 353.344 77.6873 353.552 77.3353 353.968C76.994 354.373 76.8233 354.923 76.8233 355.616V360H75.2553V352.08ZM81.2028 352.08H82.7708V360H81.2028V352.08ZM82.0028 350.912C81.7148 350.912 81.4695 350.816 81.2668 350.624C81.0641 350.421 80.9628 350.176 80.9628 349.888C80.9628 349.611 81.0641 349.371 81.2668 349.168C81.4695 348.965 81.7148 348.864 82.0028 348.864C82.2801 348.864 82.5148 348.965 82.7068 349.168C82.9095 349.371 83.0108 349.611 83.0108 349.888C83.0108 350.176 82.9095 350.421 82.7068 350.624C82.5148 350.816 82.2801 350.912 82.0028 350.912ZM88.7913 351.872C89.5273 351.872 90.1833 352.069 90.7593 352.464C91.346 352.848 91.7993 353.36 92.1193 354C92.4393 354.64 92.5993 355.323 92.5993 356.048C92.5993 356.795 92.4446 357.488 92.1353 358.128C91.8366 358.757 91.3993 359.264 90.8233 359.648C90.2473 360.032 89.5753 360.224 88.8073 360.224C88.2206 360.224 87.7033 360.107 87.2553 359.872C86.8073 359.637 86.45 359.339 86.1833 358.976V363.28H84.6153V352.08H85.9113L86.1193 353.152C86.386 352.789 86.7433 352.485 87.1913 352.24C87.6393 351.995 88.1726 351.872 88.7913 351.872ZM88.5993 353.28C87.8846 353.28 87.298 353.541 86.8393 354.064C86.3913 354.587 86.1673 355.248 86.1673 356.048C86.1673 356.859 86.3913 357.525 86.8393 358.048C87.298 358.56 87.8846 358.816 88.5993 358.816C89.058 358.816 89.474 358.699 89.8473 358.464C90.2206 358.229 90.5086 357.904 90.7113 357.488C90.9246 357.061 91.0313 356.581 91.0313 356.048C91.0313 355.525 90.9246 355.056 90.7113 354.64C90.5086 354.213 90.2206 353.883 89.8473 353.648C89.474 353.403 89.058 353.28 88.5993 353.28ZM96.6422 360.224C96.0235 360.224 95.5169 360.032 95.1222 359.648C94.7382 359.253 94.5462 358.715 94.5462 358.032V353.488H93.1222V352.08H94.5462V350.016H96.1142V352.08H98.2582V353.488H96.1142V357.84C96.1142 358.459 96.3915 358.768 96.9462 358.768C97.2555 358.768 97.5115 358.667 97.7142 358.464L98.4342 359.584C98.2955 359.744 98.0715 359.888 97.7622 360.016C97.4635 360.155 97.0902 360.224 96.6422 360.224Z" fill="#000228"/>
<path d="M42.372 424.8H49.284V426.24H43.972V429.92H48.644V431.328H43.972V436H42.372V424.8ZM50.8775 428.08H52.4455V436H50.8775V428.08ZM51.6775 426.912C51.3895 426.912 51.1442 426.816 50.9415 426.624C50.7388 426.421 50.6375 426.176 50.6375 425.888C50.6375 425.611 50.7388 425.371 50.9415 425.168C51.1442 424.965 51.3895 424.864 51.6775 424.864C51.9548 424.864 52.1895 424.965 52.3815 425.168C52.5842 425.371 52.6855 425.611 52.6855 425.888C52.6855 426.176 52.5842 426.421 52.3815 426.624C52.1895 426.816 51.9548 426.912 51.6775 426.912ZM57.858 439.488C56.8767 439.488 56.0873 439.259 55.49 438.8C54.9033 438.341 54.498 437.723 54.274 436.944L55.746 436.592C56.0127 437.627 56.7167 438.144 57.858 438.144C58.6367 438.144 59.2287 437.947 59.634 437.552C60.05 437.157 60.258 436.603 60.258 435.888V434.704C60.034 435.067 59.698 435.376 59.25 435.632C58.802 435.877 58.2793 436 57.682 436C56.914 436 56.2473 435.819 55.682 435.456C55.1167 435.083 54.6793 434.587 54.37 433.968C54.0713 433.349 53.922 432.677 53.922 431.952C53.922 431.227 54.0767 430.555 54.386 429.936C54.6953 429.307 55.1327 428.805 55.698 428.432C56.274 428.048 56.93 427.856 57.666 427.856C58.2847 427.856 58.8073 427.979 59.234 428.224C59.6713 428.459 60.0127 428.757 60.258 429.12L60.514 428.08H61.826V435.856C61.826 436.539 61.6767 437.152 61.378 437.696C61.09 438.251 60.6473 438.688 60.05 439.008C59.4633 439.328 58.7327 439.488 57.858 439.488ZM57.89 434.592C58.5833 434.592 59.1487 434.352 59.586 433.872C60.034 433.381 60.258 432.741 60.258 431.952C60.258 431.152 60.034 430.507 59.586 430.016C59.1487 429.515 58.578 429.264 57.874 429.264C57.17 429.264 56.594 429.515 56.146 430.016C55.7087 430.507 55.49 431.152 55.49 431.952C55.49 432.741 55.7087 433.381 56.146 433.872C56.594 434.352 57.1753 434.592 57.89 434.592ZM63.5794 428.08H64.8754L65.0994 429.088C65.3767 428.704 65.7234 428.405 66.1394 428.192C66.566 427.968 67.0514 427.856 67.5954 427.856C68.15 427.856 68.614 427.979 68.9874 428.224C69.3607 428.459 69.638 428.768 69.8194 429.152C70.1074 428.757 70.4754 428.443 70.9234 428.208C71.3714 427.973 71.8834 427.856 72.4594 427.856C73.2274 427.856 73.846 428.096 74.3154 428.576C74.7954 429.056 75.0354 429.776 75.0354 430.736V436H73.4674V431.232C73.4674 430.539 73.334 430.048 73.0674 429.76C72.8007 429.472 72.4167 429.328 71.9154 429.328C71.3927 429.328 70.9554 429.52 70.6034 429.904C70.262 430.288 70.0914 430.827 70.0914 431.52V436H68.5234V431.232C68.5234 429.963 68.0114 429.328 66.9874 429.328C66.4647 429.328 66.0274 429.52 65.6754 429.904C65.3234 430.288 65.1474 430.827 65.1474 431.52V436H63.5794V428.08ZM79.1586 436.224C78.6146 436.224 78.1346 436.123 77.7186 435.92C77.3026 435.707 76.9826 435.419 76.7586 435.056C76.5346 434.683 76.4226 434.267 76.4226 433.808C76.4226 433.125 76.6573 432.565 77.1266 432.128C77.6066 431.68 78.4013 431.376 79.5106 431.216L81.4146 430.944V430.768C81.4146 429.691 80.8493 429.152 79.7186 429.152C79.1746 429.152 78.7586 429.28 78.4706 429.536C78.1933 429.781 78.0173 430.133 77.9426 430.592L76.5506 430.256C76.9346 428.667 78.0013 427.872 79.7506 427.872C80.7213 427.872 81.5 428.117 82.0866 428.608C82.684 429.099 82.9826 429.813 82.9826 430.752V436H81.6546L81.4946 435.232C81.0146 435.893 80.236 436.224 79.1586 436.224ZM79.5426 434.928C80.0653 434.928 80.508 434.779 80.8706 434.48C81.2333 434.181 81.4146 433.749 81.4146 433.184V432.144L79.6386 432.416C79.0733 432.501 78.6466 432.645 78.3586 432.848C78.0813 433.04 77.9426 433.333 77.9426 433.728C77.9426 434.091 78.0866 434.384 78.3746 434.608C78.6626 434.821 79.052 434.928 79.5426 434.928Z" fill="#000228"/>
<path d="M162.333 348.8H166.205C166.984 348.8 167.645 348.944 168.189 349.232C168.744 349.509 169.16 349.899 169.437 350.4C169.714 350.891 169.853 351.445 169.853 352.064C169.853 352.917 169.629 353.616 169.181 354.16C168.733 354.693 168.178 355.051 167.517 355.232L170.301 360H168.541L165.901 355.44H163.933V360H162.333V348.8ZM166.173 354.032C166.813 354.032 167.32 353.867 167.693 353.536C168.066 353.205 168.253 352.736 168.253 352.128C168.253 351.499 168.061 351.029 167.677 350.72C167.293 350.4 166.781 350.24 166.141 350.24H163.933V354.032H166.173ZM172.176 356.528C172.208 356.955 172.325 357.349 172.528 357.712C172.741 358.075 173.029 358.368 173.392 358.592C173.755 358.805 174.165 358.912 174.624 358.912C175.179 358.912 175.643 358.779 176.016 358.512C176.4 358.235 176.656 357.909 176.784 357.536L178.128 357.968C177.893 358.629 177.477 359.173 176.88 359.6C176.283 360.016 175.531 360.224 174.624 360.224C173.856 360.224 173.168 360.043 172.56 359.68C171.963 359.307 171.493 358.8 171.152 358.16C170.821 357.52 170.656 356.811 170.656 356.032C170.656 355.264 170.827 354.565 171.168 353.936C171.52 353.296 171.995 352.795 172.592 352.432C173.2 352.059 173.872 351.872 174.608 351.872C175.355 351.872 176.005 352.043 176.56 352.384C177.125 352.715 177.563 353.184 177.872 353.792C178.181 354.4 178.336 355.104 178.336 355.904V356.528H172.176ZM176.928 355.296C176.885 354.731 176.656 354.24 176.24 353.824C175.835 353.397 175.296 353.184 174.624 353.184C173.952 353.184 173.403 353.387 172.976 353.792C172.549 354.197 172.288 354.699 172.192 355.296H176.928ZM182.103 360.224C181.559 360.224 181.079 360.123 180.663 359.92C180.247 359.707 179.927 359.419 179.703 359.056C179.479 358.683 179.367 358.267 179.367 357.808C179.367 357.125 179.602 356.565 180.071 356.128C180.551 355.68 181.346 355.376 182.455 355.216L184.359 354.944V354.768C184.359 353.691 183.794 353.152 182.663 353.152C182.119 353.152 181.703 353.28 181.415 353.536C181.138 353.781 180.962 354.133 180.887 354.592L179.495 354.256C179.879 352.667 180.946 351.872 182.695 351.872C183.666 351.872 184.445 352.117 185.031 352.608C185.629 353.099 185.927 353.813 185.927 354.752V360H184.599L184.439 359.232C183.959 359.893 183.181 360.224 182.103 360.224ZM182.487 358.928C183.01 358.928 183.453 358.779 183.815 358.48C184.178 358.181 184.359 357.749 184.359 357.184V356.144L182.583 356.416C182.018 356.501 181.591 356.645 181.303 356.848C181.026 357.04 180.887 357.333 180.887 357.728C180.887 358.091 181.031 358.384 181.319 358.608C181.607 358.821 181.997 358.928 182.487 358.928ZM191.205 360.224C190.394 360.224 189.679 360.037 189.061 359.664C188.453 359.28 187.983 358.768 187.653 358.128C187.322 357.488 187.157 356.795 187.157 356.048C187.157 355.291 187.322 354.592 187.653 353.952C187.994 353.312 188.469 352.805 189.077 352.432C189.695 352.048 190.405 351.856 191.205 351.856C192.079 351.856 192.821 352.08 193.429 352.528C194.037 352.976 194.463 353.573 194.709 354.32L193.269 354.8C193.119 354.331 192.863 353.963 192.501 353.696C192.138 353.429 191.706 353.296 191.205 353.296C190.725 353.296 190.298 353.413 189.925 353.648C189.551 353.883 189.258 354.213 189.045 354.64C188.831 355.056 188.725 355.525 188.725 356.048C188.725 356.571 188.831 357.04 189.045 357.456C189.258 357.872 189.551 358.197 189.925 358.432C190.298 358.667 190.725 358.784 191.205 358.784C191.695 358.784 192.122 358.651 192.485 358.384C192.847 358.117 193.109 357.755 193.269 357.296L194.693 357.776C194.415 358.512 193.973 359.104 193.365 359.552C192.767 360 192.047 360.224 191.205 360.224ZM198.77 360.224C198.152 360.224 197.645 360.032 197.25 359.648C196.866 359.253 196.674 358.715 196.674 358.032V353.488H195.25V352.08H196.674V350.016H198.242V352.08H200.386V353.488H198.242V357.84C198.242 358.459 198.52 358.768 199.074 358.768C199.384 358.768 199.64 358.667 199.842 358.464L200.562 359.584C200.424 359.744 200.2 359.888 199.89 360.016C199.592 360.155 199.218 360.224 198.77 360.224Z" fill="#000228"/>
<path d="M276.302 348.8H277.982L283.79 357.424V348.8H285.406V360H283.726L277.902 351.392V360H276.302V348.8ZM288.551 356.528C288.583 356.955 288.7 357.349 288.903 357.712C289.116 358.075 289.404 358.368 289.767 358.592C290.129 358.805 290.54 358.912 290.999 358.912C291.553 358.912 292.017 358.779 292.391 358.512C292.775 358.235 293.031 357.909 293.159 357.536L294.503 357.968C294.268 358.629 293.852 359.173 293.255 359.6C292.657 360.016 291.905 360.224 290.999 360.224C290.231 360.224 289.543 360.043 288.935 359.68C288.337 359.307 287.868 358.8 287.527 358.16C287.196 357.52 287.031 356.811 287.031 356.032C287.031 355.264 287.201 354.565 287.543 353.936C287.895 353.296 288.369 352.795 288.967 352.432C289.575 352.059 290.247 351.872 290.983 351.872C291.729 351.872 292.38 352.043 292.935 352.384C293.5 352.715 293.937 353.184 294.247 353.792C294.556 354.4 294.711 355.104 294.711 355.904V356.528H288.551ZM293.303 355.296C293.26 354.731 293.031 354.24 292.615 353.824C292.209 353.397 291.671 353.184 290.999 353.184C290.327 353.184 289.777 353.387 289.351 353.792C288.924 354.197 288.663 354.699 288.567 355.296H293.303ZM300.681 360L298.649 357.152L296.601 360H294.873L297.753 356.016L294.937 352.08H296.681L298.649 354.864L300.617 352.08H302.345L299.545 356L302.425 360H300.681ZM306.199 360.224C305.581 360.224 305.074 360.032 304.679 359.648C304.295 359.253 304.103 358.715 304.103 358.032V353.488H302.679V352.08H304.103V350.016H305.671V352.08H307.815V353.488H305.671V357.84C305.671 358.459 305.949 358.768 306.503 358.768C306.813 358.768 307.069 358.667 307.271 358.464L307.991 359.584C307.853 359.744 307.629 359.888 307.319 360.016C307.021 360.155 306.647 360.224 306.199 360.224ZM309.639 360.112C309.34 360.112 309.084 360.011 308.871 359.808C308.668 359.595 308.567 359.339 308.567 359.04C308.567 358.741 308.668 358.491 308.871 358.288C309.084 358.075 309.34 357.968 309.639 357.968C309.937 357.968 310.188 358.075 310.391 358.288C310.604 358.491 310.711 358.741 310.711 359.04C310.711 359.339 310.604 359.595 310.391 359.808C310.188 360.011 309.937 360.112 309.639 360.112ZM311.33 363.504C310.903 363.504 310.546 363.44 310.258 363.312C309.959 363.184 309.746 363.045 309.618 362.896L310.338 361.776C310.509 361.968 310.754 362.064 311.074 362.064C311.607 362.064 311.874 361.744 311.874 361.104V352.08H313.442V361.28C313.442 361.952 313.239 362.491 312.834 362.896C312.439 363.301 311.938 363.504 311.33 363.504ZM312.674 350.912C312.386 350.912 312.141 350.816 311.938 350.624C311.735 350.421 311.634 350.176 311.634 349.888C311.634 349.611 311.735 349.371 311.938 349.168C312.141 348.965 312.386 348.864 312.674 348.864C312.951 348.864 313.186 348.965 313.378 349.168C313.581 349.371 313.682 349.611 313.682 349.888C313.682 350.176 313.581 350.421 313.378 350.624C313.186 350.816 312.951 350.912 312.674 350.912ZM318.164 360.224C317.31 360.224 316.606 360.021 316.052 359.616C315.497 359.2 315.113 358.603 314.9 357.824L316.308 357.392C316.436 357.84 316.633 358.203 316.9 358.48C317.177 358.757 317.598 358.896 318.164 358.896C318.654 358.896 319.049 358.8 319.348 358.608C319.657 358.405 319.812 358.133 319.812 357.792C319.812 357.536 319.7 357.317 319.476 357.136C319.252 356.944 318.809 356.789 318.148 356.672C317.209 356.501 316.478 356.245 315.956 355.904C315.433 355.552 315.172 355.008 315.172 354.272C315.172 353.557 315.449 352.981 316.004 352.544C316.569 352.096 317.289 351.872 318.164 351.872C318.964 351.872 319.62 352.075 320.132 352.48C320.654 352.875 320.996 353.435 321.156 354.16L319.764 354.56C319.668 354.155 319.492 353.829 319.236 353.584C318.99 353.328 318.633 353.2 318.164 353.2C317.652 353.2 317.273 353.301 317.028 353.504C316.782 353.696 316.66 353.931 316.66 354.208C316.66 354.517 316.804 354.752 317.092 354.912C317.38 355.061 317.822 355.189 318.42 355.296C319.358 355.477 320.073 355.755 320.564 356.128C321.054 356.491 321.3 357.04 321.3 357.776C321.3 358.245 321.166 358.667 320.9 359.04C320.633 359.413 320.26 359.707 319.78 359.92C319.3 360.123 318.761 360.224 318.164 360.224Z" fill="#000228"/>
</g>
<defs>
<filter id="filter0_d_153_7" x="-18" y="-14" width="398" height="508" filterUnits="userSpaceOnUse" color-interpolation-filters="sRGB">
<feFlood flood-opacity="0" result="BackgroundImageFix"/>
<feColorMatrix in="SourceAlpha" type="matrix" values="0 0 0 0 0 0 0 0 0 0 0 0 0 0 0 0 0 0 127 0" result="hardAlpha"/>
<feOffset dy="4"/>
<feGaussianBlur stdDeviation="4"/>
<feComposite in2="hardAlpha" operator="out"/>
<feColorMatrix type="matrix" values="0 0 0 0 0 0 0 0 0 0 0 0 0 0 0 0 0 0 0.05 0"/>
<feBlend mode="normal" in2="BackgroundImageFix" result="effect1_dropShadow_153_7"/>
<feBlend mode="normal" in="SourceGraphic" in2="effect1_dropShadow_153_7" result="shape"/>
</filter>
<linearGradient id="paint0_linear_153_7" x1="181" y1="0" x2="181" y2="472" gradientUnits="userSpaceOnUse">
<stop stop-color="#000E8A"/>
<stop offset="0.528846" stop-color="#116CD5"/>
</linearGradient>
<linearGradient id="paint1_linear_153_7" x1="181" y1="240" x2="181" y2="470" gradientUnits="userSpaceOnUse">
<stop stop-color="#F4F4F4"/>
<stop offset="0.245192" stop-color="#FCFCFC"/>
</linearGradient>
<linearGradient id="paint2_linear_153_7" x1="51" y1="90" x2="51" y2="150" gradientUnits="userSpaceOnUse">
<stop stop-color="white"/>
<stop offset="1" stop-color="#FDFDFD"/>
</linearGradient>
<linearGradient id="paint3_linear_153_7" x1="51" y1="90" x2="51" y2="150" gradientUnits="userSpaceOnUse">
<stop stop-color="#E5E5E5"/>
<stop offset="1" stop-color="#E5E5E5"/>
</linearGradient>
<linearGradient id="paint4_linear_153_7" x1="181" y1="90" x2="181" y2="150" gradientUnits="userSpaceOnUse">
<stop stop-color="white"/>
<stop offset="1" stop-color="#FDFDFD"/>
</linearGradient>
<linearGradient id="paint5_linear_153_7" x1="181" y1="90" x2="181" y2="150" gradientUnits="userSpaceOnUse">
<stop stop-color="#E5E5E5"/>
<stop offset="1" stop-color="#E5E5E5"/>
</linearGradient>
<linearGradient id="paint6_linear_153_7" x1="311" y1="90" x2="311" y2="150" gradientUnits="userSpaceOnUse">
<stop stop-color="white"/>
<stop offset="1" stop-color="#FDFDFD"/>
</linearGradient>
<linearGradient id="paint7_linear_153_7" x1="311" y1="90" x2="311" y2="150" gradientUnits="userSpaceOnUse">
<stop stop-color="#E5E5E5"/>
<stop offset="1" stop-color="#E5E5E5"/>
</linearGradient>
<linearGradient id="paint8_linear_153_7" x1="-15" y1="20" x2="-15" y2="80" gradientUnits="userSpaceOnUse">
<stop stop-color="white"/>
<stop offset="1" stop-color="#FDFDFD"/>
</linearGradient>
<linearGradient id="paint9_linear_153_7" x1="-15" y1="20" x2="-15" y2="80" gradientUnits="userSpaceOnUse">
<stop stop-color="#E5E5E5"/>
<stop offset="1" stop-color="#E5E5E5"/>
</linearGradient>
<linearGradient id="paint10_linear_153_7" x1="115" y1="20" x2="115" y2="80" gradientUnits="userSpaceOnUse">
<stop stop-color="white"/>
<stop offset="1" stop-color="#FDFDFD"/>
</linearGradient>
<linearGradient id="paint11_linear_153_7" x1="115" y1="20" x2="115" y2="80" gradientUnits="userSpaceOnUse">
<stop stop-color="#E5E5E5"/>
<stop offset="1" stop-color="#E5E5E5"/>
</linearGradient>
<linearGradient id="paint12_linear_153_7" x1="245" y1="20" x2="245" y2="80" gradientUnits="userSpaceOnUse">
<stop stop-color="white"/>
<stop offset="1" stop-color="#FDFDFD"/>
</linearGradient>
<linearGradient id="paint13_linear_153_7" x1="245" y1="20" x2="245" y2="80" gradientUnits="userSpaceOnUse">
<stop stop-color="#E5E5E5"/>
<stop offset="1" stop-color="#E5E5E5"/>
</linearGradient>
<linearGradient id="paint14_linear_153_7" x1="375" y1="20" x2="375" y2="80" gradientUnits="userSpaceOnUse">
<stop stop-color="white"/>
<stop offset="1" stop-color="#FDFDFD"/>
</linearGradient>
<linearGradient id="paint15_linear_153_7" x1="375" y1="20" x2="375" y2="80" gradientUnits="userSpaceOnUse">
<stop stop-color="#E5E5E5"/>
<stop offset="1" stop-color="#E5E5E5"/>
</linearGradient>
<linearGradient id="paint16_linear_153_7" x1="-19" y1="160" x2="-19" y2="220" gradientUnits="userSpaceOnUse">
<stop stop-color="white"/>
<stop offset="1" stop-color="#FDFDFD"/>
</linearGradient>
<linearGradient id="paint17_linear_153_7" x1="-19" y1="160" x2="-19" y2="220" gradientUnits="userSpaceOnUse">
<stop stop-color="#E5E5E5"/>
<stop offset="1" stop-color="#E5E5E5"/>
</linearGradient>
<linearGradient id="paint18_linear_153_7" x1="111" y1="160" x2="111" y2="220" gradientUnits="userSpaceOnUse">
<stop stop-color="white"/>
<stop offset="1" stop-color="#FDFDFD"/>
</linearGradient>
<linearGradient id="paint19_linear_153_7" x1="111" y1="160" x2="111" y2="220" gradientUnits="userSpaceOnUse">
<stop stop-color="#E5E5E5"/>
<stop offset="1" stop-color="#E5E5E5"/>
</linearGradient>
<linearGradient id="paint20_linear_153_7" x1="241" y1="160" x2="241" y2="220" gradientUnits="userSpaceOnUse">
<stop stop-color="white"/>
<stop offset="1" stop-color="#FDFDFD"/>
</linearGradient>
<linearGradient id="paint21_linear_153_7" x1="241" y1="160" x2="241" y2="220" gradientUnits="userSpaceOnUse">
<stop stop-color="#E5E5E5"/>
<stop offset="1" stop-color="#E5E5E5"/>
</linearGradient>
<linearGradient id="paint22_linear_153_7" x1="371" y1="160" x2="371" y2="220" gradientUnits="userSpaceOnUse">
<stop stop-color="white"/>
<stop offset="1" stop-color="#FDFDFD"/>
</linearGradient>
<linearGradient id="paint23_linear_153_7" x1="371" y1="160" x2="371" y2="220" gradientUnits="userSpaceOnUse">
<stop stop-color="#E5E5E5"/>
<stop offset="1" stop-color="#E5E5E5"/>
</linearGradient>
<linearGradient id="paint24_linear_153_7" x1="181" y1="105" x2="181" y2="135" gradientUnits="userSpaceOnUse">
<stop stop-color="white"/>
<stop offset="1" stop-color="#B5D5F7"/>
</linearGradient>
<linearGradient id="paint25_linear_153_7" x1="51" y1="104.795" x2="51" y2="136.205" gradientUnits="userSpaceOnUse">
<stop stop-color="white"/>
<stop offset="1" stop-color="#B5D5F7"/>
</linearGradient>
<linearGradient id="paint26_linear_153_7" x1="311" y1="106" x2="311" y2="134" gradientUnits="userSpaceOnUse">
<stop stop-color="white"/>
<stop offset="1" stop-color="#B5D5F7"/>
</linearGradient>
<linearGradient id="paint27_linear_153_7" x1="245" y1="36" x2="245" y2="64" gradientUnits="userSpaceOnUse">
<stop stop-color="white"/>
<stop offset="1" stop-color="#B5D5F7"/>
</linearGradient>
<linearGradient id="paint28_linear_153_7" x1="241" y1="183.641" x2="241" y2="195.641" gradientUnits="userSpaceOnUse">
<stop stop-color="white"/>
<stop offset="1" stop-color="#B5D5F7"/>
</linearGradient>
<linearGradient id="paint29_linear_153_7" x1="241" y1="177" x2="241" y2="202.281" gradientUnits="userSpaceOnUse">
<stop stop-color="white"/>
<stop offset="1" stop-color="#B5D5F7"/>
</linearGradient>
<linearGradient id="paint30_linear_153_7" x1="241" y1="177" x2="241" y2="202.281" gradientUnits="userSpaceOnUse">
<stop stop-color="white"/>
<stop offset="1" stop-color="#B5D5F7"/>
</linearGradient>
<linearGradient id="paint31_linear_153_7" x1="241" y1="187.641" x2="241" y2="191.641" gradientUnits="userSpaceOnUse">
<stop stop-color="white"/>
<stop offset="1" stop-color="#B5D5F7"/>
</linearGradient>
<linearGradient id="paint32_linear_153_7" x1="115" y1="36" x2="115" y2="64" gradientUnits="userSpaceOnUse">
<stop stop-color="white"/>
<stop offset="1" stop-color="#B5D5F7"/>
</linearGradient>
<linearGradient id="paint33_linear_153_7" x1="111" y1="181.201" x2="111" y2="198.798" gradientUnits="userSpaceOnUse">
<stop stop-color="white"/>
<stop offset="1" stop-color="#B5D5F7"/>
</linearGradient>
<clipPath id="clip0_153_7">
<rect width="362" height="472" fill="white"/>
</clipPath>
</defs>
</svg>
