<svg width="1170" height="1170" viewBox="0 0 1170 1170" fill="none" xmlns="http://www.w3.org/2000/svg">
<g clip-path="url(#clip0_214_104)">
<rect x="10.752" y="10.752" width="1148.5" height="1148.5" rx="172.032" fill="url(#paint0_linear_214_104)"/>
<rect x="10.752" y="10.752" width="1148.5" height="1148.5" rx="172.032" stroke="url(#paint1_linear_214_104)" stroke-width="21.504"/>
<rect x="10.752" y="10.752" width="1148.5" height="1148.5" rx="172.032" stroke="url(#paint2_linear_214_104)" stroke-width="21.504"/>
<g filter="url(#filter0_ii_214_104)">
<path d="M250 0H945V335C945 348.807 933.807 360 920 360H275C261.193 360 250 348.807 250 335V0Z" fill="url(#paint3_linear_214_104)"/>
</g>
<g filter="url(#filter1_i_214_104)">
<rect x="645" y="40" width="280" height="25" rx="5" fill="url(#paint4_linear_214_104)"/>
<rect x="645" y="40" width="280" height="25" rx="5" fill="#630505"/>
</g>
<g filter="url(#filter2_di_214_104)">
<path d="M255 0H780V335C780 346.046 771.046 355 760 355H275C263.954 355 255 346.046 255 335V0Z" fill="#F7F7F7"/>
</g>
<g filter="url(#filter3_i_214_104)">
<rect x="720" y="40" width="40" height="25" rx="5" fill="#B7B7B7"/>
<rect x="720" y="40" width="40" height="25" rx="5" fill="url(#paint5_linear_214_104)"/>
<rect x="720" y="40" width="40" height="25" rx="5" fill="url(#paint6_linear_214_104)"/>
</g>
<g filter="url(#filter4_i_214_104)">
<path d="M420 325C420 327.761 417.761 330 415 330H285C282.239 330 280 327.761 280 325V75C280 72.2386 282.239 70 285 70H300C302.761 70 305 67.7614 305 65V55C305 52.2386 307.239 50 310 50H390C392.761 50 395 52.2386 395 55V65C395 67.7614 397.239 70 400 70H415C417.761 70 420 72.2386 420 75V325Z" fill="#DADADA"/>
<path d="M420 325C420 327.761 417.761 330 415 330H285C282.239 330 280 327.761 280 325V75C280 72.2386 282.239 70 285 70H300C302.761 70 305 67.7614 305 65V55C305 52.2386 307.239 50 310 50H390C392.761 50 395 52.2386 395 55V65C395 67.7614 397.239 70 400 70H415C417.761 70 420 72.2386 420 75V325Z" fill="url(#paint7_linear_214_104)"/>
</g>
<g filter="url(#filter5_i_214_104)">
<path d="M170 515C170 501.193 181.193 490 195 490H975C988.807 490 1000 501.193 1000 515V1170H170V515Z" fill="#B8B8B8"/>
<path d="M170 515C170 501.193 181.193 490 195 490H975C988.807 490 1000 501.193 1000 515V1170H170V515Z" fill="url(#paint8_linear_214_104)"/>
</g>
<g filter="url(#filter6_i_214_104)">
<path d="M175 515C175 503.954 183.954 495 195 495H975C986.046 495 995 503.954 995 515V1170H175V515Z" fill="#D9D9D9"/>
<path d="M175 515C175 503.954 183.954 495 195 495H975C986.046 495 995 503.954 995 515V1170H175V515Z" fill="url(#paint9_radial_214_104)"/>
</g>
<rect x="285.5" y="620.5" width="594" height="414" rx="12" fill="white" style="mix-blend-mode:soft-light"/>
<path d="M489.501 848.501C492.815 848.501 495.501 851.187 495.501 854.501V992.501C495.501 995.815 492.815 998.501 489.501 998.501H339.501C336.187 998.501 333.501 995.815 333.501 992.501V854.501C333.501 851.187 336.187 848.501 339.501 848.501H489.501ZM657.499 848.501C660.813 848.501 663.499 851.187 663.499 854.501V992.501C663.499 995.815 660.813 998.501 657.499 998.501H507.499C504.185 998.501 501.499 995.815 501.499 992.501V854.501C501.499 851.187 504.185 848.501 507.499 848.501H657.499ZM825.5 848.501C828.813 848.501 831.5 851.187 831.5 854.501V992.501C831.5 995.815 828.813 998.501 825.5 998.501H675.499C672.186 998.501 669.5 995.815 669.5 992.501V854.501C669.5 851.187 672.186 848.501 675.5 848.501H825.5ZM615.501 807.501C615.501 810.262 613.262 812.501 610.501 812.501H560.501C557.74 812.501 555.501 810.262 555.501 807.501V805.501C555.501 802.74 553.262 800.501 550.501 800.501H515C512.239 800.501 510 798.262 510 795.501V793.501C510 790.74 512.239 788.501 515 788.501H655C657.761 788.501 660 790.74 660 793.501V795.501C660 798.262 657.761 800.501 655 800.501H620.501C617.74 800.501 615.501 802.74 615.501 805.501V807.501ZM651.5 783.499C651.5 786.26 649.261 788.499 646.5 788.499H524.5C521.739 788.499 519.5 786.26 519.5 783.499V781.499C519.5 778.738 521.739 776.499 524.5 776.499H646.5C649.261 776.499 651.5 778.738 651.5 781.499V783.499ZM681.5 741.501C681.5 744.262 679.261 746.501 676.5 746.501H662.501C659.74 746.501 657.501 748.74 657.501 751.501V759.499C657.501 762.26 655.262 764.499 652.501 764.499H518.501C515.74 764.499 513.501 762.26 513.501 759.499V751.501C513.501 748.74 511.262 746.501 508.501 746.501H494.5C491.739 746.501 489.5 744.262 489.5 741.501V733.501C489.5 730.74 491.739 728.501 494.5 728.501H676.5C679.261 728.501 681.5 730.74 681.5 733.501V741.501ZM621.501 662.5C634.756 662.5 645.501 673.245 645.501 686.5C645.501 699.755 634.755 710.5 621.5 710.5H549.5C536.245 710.5 525.501 699.755 525.501 686.5C525.501 673.245 536.246 662.5 549.501 662.5H621.501Z" fill="url(#paint10_linear_214_104)"/>
<g filter="url(#filter7_iiiiii_214_104)">
<path d="M135.68 142.412C137.609 139.102 142.391 139.102 144.32 142.412L185.619 213.275C187.561 216.608 185.157 220.792 181.299 220.792H164.755C161.993 220.792 159.755 223.031 159.755 225.792V260C159.755 262.761 157.516 265 154.755 265H125.245C122.484 265 120.245 262.761 120.245 260V225.792C120.245 223.031 118.007 220.792 115.245 220.792H98.7012C94.8431 220.792 92.4387 216.608 94.3813 213.275L135.68 142.412Z" fill="url(#paint11_linear_214_104)"/>
<path d="M135.68 142.412C137.609 139.102 142.391 139.102 144.32 142.412L185.619 213.275C187.561 216.608 185.157 220.792 181.299 220.792H164.755C161.993 220.792 159.755 223.031 159.755 225.792V260C159.755 262.761 157.516 265 154.755 265H125.245C122.484 265 120.245 262.761 120.245 260V225.792C120.245 223.031 118.007 220.792 115.245 220.792H98.7012C94.8431 220.792 92.4387 216.608 94.3813 213.275L135.68 142.412Z" fill="url(#paint12_linear_214_104)"/>
</g>
</g>
<defs>
<filter id="filter0_ii_214_104" x="248" y="-2" width="697" height="362" filterUnits="userSpaceOnUse" color-interpolation-filters="sRGB">
<feFlood flood-opacity="0" result="BackgroundImageFix"/>
<feBlend mode="normal" in="SourceGraphic" in2="BackgroundImageFix" result="shape"/>
<feColorMatrix in="SourceAlpha" type="matrix" values="0 0 0 0 0 0 0 0 0 0 0 0 0 0 0 0 0 0 127 0" result="hardAlpha"/>
<feOffset dy="21.5"/>
<feComposite in2="hardAlpha" operator="arithmetic" k2="-1" k3="1"/>
<feColorMatrix type="matrix" values="0 0 0 0 1 0 0 0 0 1 0 0 0 0 1 0 0 0 0.25 0"/>
<feBlend mode="normal" in2="shape" result="effect1_innerShadow_214_104"/>
<feColorMatrix in="SourceAlpha" type="matrix" values="0 0 0 0 0 0 0 0 0 0 0 0 0 0 0 0 0 0 127 0" result="hardAlpha"/>
<feOffset dx="-2" dy="-2"/>
<feGaussianBlur stdDeviation="1.25"/>
<feComposite in2="hardAlpha" operator="arithmetic" k2="-1" k3="1"/>
<feColorMatrix type="matrix" values="0 0 0 0 0 0 0 0 0 0 0 0 0 0 0 0 0 0 0.1 0"/>
<feBlend mode="normal" in2="effect1_innerShadow_214_104" result="effect2_innerShadow_214_104"/>
</filter>
<filter id="filter1_i_214_104" x="645" y="40" width="280" height="30" filterUnits="userSpaceOnUse" color-interpolation-filters="sRGB">
<feFlood flood-opacity="0" result="BackgroundImageFix"/>
<feBlend mode="normal" in="SourceGraphic" in2="BackgroundImageFix" result="shape"/>
<feColorMatrix in="SourceAlpha" type="matrix" values="0 0 0 0 0 0 0 0 0 0 0 0 0 0 0 0 0 0 127 0" result="hardAlpha"/>
<feOffset dy="5"/>
<feGaussianBlur stdDeviation="5"/>
<feComposite in2="hardAlpha" operator="arithmetic" k2="-1" k3="1"/>
<feColorMatrix type="matrix" values="0 0 0 0 0 0 0 0 0 0 0 0 0 0 0 0 0 0 0.25 0"/>
<feBlend mode="normal" in2="shape" result="effect1_innerShadow_214_104"/>
</filter>
<filter id="filter2_di_214_104" x="254.5" y="-0.5" width="530" height="360" filterUnits="userSpaceOnUse" color-interpolation-filters="sRGB">
<feFlood flood-opacity="0" result="BackgroundImageFix"/>
<feColorMatrix in="SourceAlpha" type="matrix" values="0 0 0 0 0 0 0 0 0 0 0 0 0 0 0 0 0 0 127 0" result="hardAlpha"/>
<feOffset dx="2" dy="2"/>
<feGaussianBlur stdDeviation="1.25"/>
<feComposite in2="hardAlpha" operator="out"/>
<feColorMatrix type="matrix" values="0 0 0 0 0 0 0 0 0 0 0 0 0 0 0 0 0 0 0.1 0"/>
<feBlend mode="normal" in2="BackgroundImageFix" result="effect1_dropShadow_214_104"/>
<feBlend mode="normal" in="SourceGraphic" in2="effect1_dropShadow_214_104" result="shape"/>
<feColorMatrix in="SourceAlpha" type="matrix" values="0 0 0 0 0 0 0 0 0 0 0 0 0 0 0 0 0 0 127 0" result="hardAlpha"/>
<feOffset dy="21.5"/>
<feComposite in2="hardAlpha" operator="arithmetic" k2="-1" k3="1"/>
<feColorMatrix type="matrix" values="0 0 0 0 1 0 0 0 0 1 0 0 0 0 1 0 0 0 0.25 0"/>
<feBlend mode="normal" in2="shape" result="effect2_innerShadow_214_104"/>
</filter>
<filter id="filter3_i_214_104" x="720" y="40" width="40" height="27" filterUnits="userSpaceOnUse" color-interpolation-filters="sRGB">
<feFlood flood-opacity="0" result="BackgroundImageFix"/>
<feBlend mode="normal" in="SourceGraphic" in2="BackgroundImageFix" result="shape"/>
<feColorMatrix in="SourceAlpha" type="matrix" values="0 0 0 0 0 0 0 0 0 0 0 0 0 0 0 0 0 0 127 0" result="hardAlpha"/>
<feOffset dy="2"/>
<feGaussianBlur stdDeviation="1.25"/>
<feComposite in2="hardAlpha" operator="arithmetic" k2="-1" k3="1"/>
<feColorMatrix type="matrix" values="0 0 0 0 0 0 0 0 0 0 0 0 0 0 0 0 0 0 0.25 0"/>
<feBlend mode="normal" in2="shape" result="effect1_innerShadow_214_104"/>
</filter>
<filter id="filter4_i_214_104" x="280" y="50" width="140" height="282" filterUnits="userSpaceOnUse" color-interpolation-filters="sRGB">
<feFlood flood-opacity="0" result="BackgroundImageFix"/>
<feBlend mode="normal" in="SourceGraphic" in2="BackgroundImageFix" result="shape"/>
<feColorMatrix in="SourceAlpha" type="matrix" values="0 0 0 0 0 0 0 0 0 0 0 0 0 0 0 0 0 0 127 0" result="hardAlpha"/>
<feOffset dy="2"/>
<feGaussianBlur stdDeviation="1.25"/>
<feComposite in2="hardAlpha" operator="arithmetic" k2="-1" k3="1"/>
<feColorMatrix type="matrix" values="0 0 0 0 0 0 0 0 0 0 0 0 0 0 0 0 0 0 0.25 0"/>
<feBlend mode="normal" in2="shape" result="effect1_innerShadow_214_104"/>
</filter>
<filter id="filter5_i_214_104" x="170" y="490" width="830" height="680" filterUnits="userSpaceOnUse" color-interpolation-filters="sRGB">
<feFlood flood-opacity="0" result="BackgroundImageFix"/>
<feBlend mode="normal" in="SourceGraphic" in2="BackgroundImageFix" result="shape"/>
<feColorMatrix in="SourceAlpha" type="matrix" values="0 0 0 0 0 0 0 0 0 0 0 0 0 0 0 0 0 0 127 0" result="hardAlpha"/>
<feOffset dy="-21.5"/>
<feComposite in2="hardAlpha" operator="arithmetic" k2="-1" k3="1"/>
<feColorMatrix type="matrix" values="0 0 0 0 0 0 0 0 0 0 0 0 0 0 0 0 0 0 0.25 0"/>
<feBlend mode="normal" in2="shape" result="effect1_innerShadow_214_104"/>
</filter>
<filter id="filter6_i_214_104" x="175" y="495" width="820" height="675" filterUnits="userSpaceOnUse" color-interpolation-filters="sRGB">
<feFlood flood-opacity="0" result="BackgroundImageFix"/>
<feBlend mode="normal" in="SourceGraphic" in2="BackgroundImageFix" result="shape"/>
<feColorMatrix in="SourceAlpha" type="matrix" values="0 0 0 0 0 0 0 0 0 0 0 0 0 0 0 0 0 0 127 0" result="hardAlpha"/>
<feOffset dy="-21.5"/>
<feComposite in2="hardAlpha" operator="arithmetic" k2="-1" k3="1"/>
<feColorMatrix type="matrix" values="0 0 0 0 0 0 0 0 0 0 0 0 0 0 0 0 0 0 0.25 0"/>
<feBlend mode="normal" in2="shape" result="effect1_innerShadow_214_104"/>
</filter>
<filter id="filter7_iiiiii_214_104" x="92.3086" y="138.545" width="96.768" height="131.455" filterUnits="userSpaceOnUse" color-interpolation-filters="sRGB">
<feFlood flood-opacity="0" result="BackgroundImageFix"/>
<feBlend mode="normal" in="SourceGraphic" in2="BackgroundImageFix" result="shape"/>
<feColorMatrix in="SourceAlpha" type="matrix" values="0 0 0 0 0 0 0 0 0 0 0 0 0 0 0 0 0 0 127 0" result="hardAlpha"/>
<feOffset dy="-1.3851"/>
<feGaussianBlur stdDeviation="1.3851"/>
<feComposite in2="hardAlpha" operator="arithmetic" k2="-1" k3="1"/>
<feColorMatrix type="matrix" values="0 0 0 0 0 0 0 0 0 0 0 0 0 0 0 0 0 0 0.05 0"/>
<feBlend mode="normal" in2="shape" result="effect1_innerShadow_214_104"/>
<feColorMatrix in="SourceAlpha" type="matrix" values="0 0 0 0 0 0 0 0 0 0 0 0 0 0 0 0 0 0 127 0" result="hardAlpha"/>
<feOffset dx="1.3851"/>
<feGaussianBlur stdDeviation="1.3851"/>
<feComposite in2="hardAlpha" operator="arithmetic" k2="-1" k3="1"/>
<feColorMatrix type="matrix" values="0 0 0 0 0 0 0 0 0 0 0 0 0 0 0 0 0 0 0.05 0"/>
<feBlend mode="normal" in2="effect1_innerShadow_214_104" result="effect2_innerShadow_214_104"/>
<feColorMatrix in="SourceAlpha" type="matrix" values="0 0 0 0 0 0 0 0 0 0 0 0 0 0 0 0 0 0 127 0" result="hardAlpha"/>
<feOffset dx="-1.3851"/>
<feGaussianBlur stdDeviation="1.3851"/>
<feComposite in2="hardAlpha" operator="arithmetic" k2="-1" k3="1"/>
<feColorMatrix type="matrix" values="0 0 0 0 0 0 0 0 0 0 0 0 0 0 0 0 0 0 0.05 0"/>
<feBlend mode="normal" in2="effect2_innerShadow_214_104" result="effect3_innerShadow_214_104"/>
<feColorMatrix in="SourceAlpha" type="matrix" values="0 0 0 0 0 0 0 0 0 0 0 0 0 0 0 0 0 0 127 0" result="hardAlpha"/>
<feOffset dy="1.3851"/>
<feGaussianBlur stdDeviation="1.3851"/>
<feComposite in2="hardAlpha" operator="arithmetic" k2="-1" k3="1"/>
<feColorMatrix type="matrix" values="0 0 0 0 0 0 0 0 0 0 0 0 0 0 0 0 0 0 0.05 0"/>
<feBlend mode="normal" in2="effect3_innerShadow_214_104" result="effect4_innerShadow_214_104"/>
<feColorMatrix in="SourceAlpha" type="matrix" values="0 0 0 0 0 0 0 0 0 0 0 0 0 0 0 0 0 0 127 0" result="hardAlpha"/>
<feOffset dx="2.7702"/>
<feGaussianBlur stdDeviation="1.3851"/>
<feComposite in2="hardAlpha" operator="arithmetic" k2="-1" k3="1"/>
<feColorMatrix type="matrix" values="0 0 0 0 0 0 0 0 0 0 0 0 0 0 0 0 0 0 0.1 0"/>
<feBlend mode="normal" in2="effect4_innerShadow_214_104" result="effect5_innerShadow_214_104"/>
<feColorMatrix in="SourceAlpha" type="matrix" values="0 0 0 0 0 0 0 0 0 0 0 0 0 0 0 0 0 0 127 0" result="hardAlpha"/>
<feOffset dy="5"/>
<feGaussianBlur stdDeviation="5"/>
<feComposite in2="hardAlpha" operator="arithmetic" k2="-1" k3="1"/>
<feColorMatrix type="matrix" values="0 0 0 0 0 0 0 0 0 0 0 0 0 0 0 0 0 0 0.25 0"/>
<feBlend mode="normal" in2="effect5_innerShadow_214_104" result="effect6_innerShadow_214_104"/>
</filter>
<linearGradient id="paint0_linear_214_104" x1="585" y1="0" x2="585" y2="1170" gradientUnits="userSpaceOnUse">
<stop stop-color="#DCDCDC"/>
<stop offset="0.730769" stop-color="#D4D4D4"/>
</linearGradient>
<linearGradient id="paint1_linear_214_104" x1="585" y1="0" x2="585" y2="1170" gradientUnits="userSpaceOnUse">
<stop stop-color="white"/>
<stop offset="0.149038" stop-color="white" stop-opacity="0"/>
</linearGradient>
<linearGradient id="paint2_linear_214_104" x1="585" y1="0" x2="585" y2="1170" gradientUnits="userSpaceOnUse">
<stop offset="0.850962" stop-color="#D4D4D4" stop-opacity="0"/>
<stop offset="1" stop-color="#C6C6C6"/>
</linearGradient>
<linearGradient id="paint3_linear_214_104" x1="597.5" y1="0" x2="597.5" y2="360" gradientUnits="userSpaceOnUse">
<stop stop-color="#343434"/>
<stop offset="1" stop-color="#252525"/>
</linearGradient>
<linearGradient id="paint4_linear_214_104" x1="785" y1="65" x2="785" y2="40" gradientUnits="userSpaceOnUse">
<stop stop-color="#B7B7B7"/>
<stop offset="1" stop-color="#CBCBCB"/>
</linearGradient>
<linearGradient id="paint5_linear_214_104" x1="740" y1="65" x2="740" y2="40" gradientUnits="userSpaceOnUse">
<stop stop-color="#B7B7B7"/>
<stop offset="1" stop-color="#CBCBCB"/>
</linearGradient>
<linearGradient id="paint6_linear_214_104" x1="757.865" y1="39.9932" x2="758.137" y2="64.9995" gradientUnits="userSpaceOnUse">
<stop stop-color="#630505"/>
</linearGradient>
<linearGradient id="paint7_linear_214_104" x1="412.528" y1="49.9234" x2="422.256" y2="329.689" gradientUnits="userSpaceOnUse">
<stop stop-color="#272727"/>
<stop offset="1" stop-color="#121212"/>
</linearGradient>
<linearGradient id="paint8_linear_214_104" x1="585" y1="490" x2="585" y2="1170" gradientUnits="userSpaceOnUse">
<stop stop-color="#343434"/>
<stop offset="1" stop-color="#252525"/>
</linearGradient>
<radialGradient id="paint9_radial_214_104" cx="0" cy="0" r="1" gradientUnits="userSpaceOnUse" gradientTransform="translate(585 1170) rotate(-90) scale(675 820)">
<stop stop-color="#000E8A"/>
<stop offset="1" stop-color="#2A8DFF"/>
</radialGradient>
<linearGradient id="paint10_linear_214_104" x1="582.5" y1="662.5" x2="582.5" y2="998.501" gradientUnits="userSpaceOnUse">
<stop stop-color="white"/>
<stop offset="1" stop-color="#ABD0EC"/>
</linearGradient>
<linearGradient id="paint11_linear_214_104" x1="140" y1="265" x2="140" y2="135" gradientUnits="userSpaceOnUse">
<stop stop-color="#B7B7B7"/>
<stop offset="1" stop-color="#CBCBCB"/>
</linearGradient>
<linearGradient id="paint12_linear_214_104" x1="140" y1="135" x2="140" y2="265" gradientUnits="userSpaceOnUse">
<stop stop-color="#343434"/>
<stop offset="1" stop-color="#252525"/>
</linearGradient>
<clipPath id="clip0_214_104">
<rect width="1170" height="1170" fill="white"/>
</clipPath>
</defs>
</svg>
